<svg id="ec8Xgezavuo1" xmlns="http://www.w3.org/2000/svg" xmlns:xlink="http://www.w3.org/1999/xlink" viewBox="0 0 450 149.999998" shape-rendering="geometricPrecision" text-rendering="geometricPrecision">
<style><![CDATA[
#ec8Xgezavuo63_tr {animation: ec8Xgezavuo63_tr__tr 10000ms linear 1 normal forwards}@keyframes ec8Xgezavuo63_tr__tr { 0% {transform: translate(79.445313px,75.035156px) rotate(12690deg)} 100% {transform: translate(79.445313px,75.035156px) rotate(11191deg)}}
]]></style>
<g style="mix-blend-mode:multiply"><g transform="translate(142.302155 65.25)"><g><path d="M0.371094,-1.394531C0.15625,-0.621094,0.621094,0,1.425781,0h2.976563c.804687,0,1.582031-.621094,1.796875-1.425781l1.023437-3.8125h10.757813v3.8125C17.980469,-0.621094,18.597656,0,19.40625,0h2.851562c.773438,0,1.425782-.621094,1.425782-1.394531v-18.910157c0-.742187-.558594-1.394531-1.304688-1.394531h-8.152344c-4.398437,0-8.769531,1.085938-10.042968,5.890625Zm9.300781-12.988281c.496094-1.859376,2.046875-3.039063,3.996094-3.039063h4.3125v7.90625h-9.640625Zm0,0" fill="#737373"/></g></g></g><g style="mix-blend-mode:multiply"><g transform="translate(168.152939 65.25)"><g><path d="M6.449219,0C7.222656,0,7.875,-0.621094,7.875,-1.394531v-7.347657h3.253906c1.953125,0,3.097656,1.273438,4.246094,3.101563l2.664062,4.214844C18.535156,-0.621094,19.589844,0,20.367188,0h3.46875c.808593,0,1.023437-.621094.527343-1.425781L20.582031,-7.4375c-.867187-1.335938-2.417969-3.226562-3.90625-3.535156c2.109375-.496094,3.132813-1.953125,3.90625-3.347656l3.285157-5.953126c.464843-.835937.3125-1.457031-.464844-1.457031h-3.5c-.777344,0-1.613282.464844-2.171875,1.457031l-2.355469,4.1875c-1.210938,2.167969-2.480469,3.066407-4.246094,3.066407h-3.253906v-7.253907c0-.804687-.652344-1.457031-1.425781-1.457031h-2.851563c-.777344,0-1.429687.652344-1.429687,1.457031v18.816407C2.167969,-0.652344,2.820312,0,3.597656,0Zm0,0" fill="#737373"/></g></g></g><g style="mix-blend-mode:multiply"><g transform="translate(192.794876 65.25)"><g><path d="M0.371094,-1.394531C0.15625,-0.621094,0.621094,0,1.425781,0h2.976563c.804687,0,1.582031-.621094,1.796875-1.425781l1.023437-3.8125h10.757813v3.8125C17.980469,-0.621094,18.597656,0,19.40625,0h2.851562c.773438,0,1.425782-.621094,1.425782-1.394531v-18.910157c0-.742187-.558594-1.394531-1.304688-1.394531h-8.152344c-4.398437,0-8.769531,1.085938-10.042968,5.890625Zm9.300781-12.988281c.496094-1.859376,2.046875-3.039063,3.996094-3.039063h4.3125v7.90625h-9.640625Zm0,0" fill="#737373"/></g></g></g><g style="mix-blend-mode:multiply"><g transform="translate(218.64566 65.25)"><g><path d="M1.734375,-21.699219c-.804687,0-1.425781.621094-1.425781,1.425781v1.425782c0,.808594.621094,1.425781,1.425781,1.425781h6.757813v16.027344C8.492188,-0.621094,9.144531,0,9.917969,0h2.851562c.777344,0,1.425781-.621094,1.425781-1.394531v-16.027344h6.757813c.808594,0,1.425781-.617187,1.425781-1.425781v-1.425782c0-.804687-.617187-1.425781-1.425781-1.425781Zm0,0" fill="#737373"/></g></g></g><g style="mix-blend-mode:multiply"><g transform="translate(241.334839 65.25)"><g><path d="M1.117188,-15.5c0,8.03125,16.394531,6.015625,16.394531,9.609375c0,1.085937-.804688,1.738281-2.664063,1.738281l-5.300781-.09375c-1.550781,0-2.726563-.496094-3.222656-1.550781-.496094-1.023437-1.179688-1.425781-2.046875-1.425781h-1.796875c-.402344,0-1.550781.277344-1.550781,1.675781c0,3.316406,4.183593,5.578125,8.089843,5.578125l4.589844.09375c7.4375,0,9.609375-2.605469,9.609375-6.324219c0-8.089843-16.398438-6.015625-16.398438-9.609375c0-1.085937.804688-1.734375,2.664063-1.734375l4.558594.089844c1.546875,0,2.726562.496094,3.222656,1.550781.496094,1.023438,1.179687,1.425782,2.046875,1.425782h1.796875c.402344,0,1.550781-.277344,1.550781-1.671876c0-3.316406-4.1875-5.582031-8.089844-5.582031l-3.84375-.089843c-7.441406,0-9.609374,2.601562-9.609374,6.320312Zm0,0" fill="#737373"/></g></g></g><g style="mix-blend-mode:multiply"><g transform="translate(265.480835 65.25)"><g><path d="M11.5625,-4.152344c-2.757812,0-4-1.425781-4-4.402344v-11.71875c0-.804687-.648438-1.425781-1.425781-1.425781h-2.820313c-.804687,0-1.457031.621094-1.457031,1.425781v11.6875c0,5.484376,3.222656,8.710938,9.546875,8.710938h2.730469c6.320312,0,9.546875-3.226562,9.546875-8.710938v-11.6875c0-.804687-.652344-1.425781-1.457032-1.425781h-2.820312c-.777344,0-1.425781.621094-1.425781,1.425781v11.71875c0,2.976563-1.242188,4.402344-4,4.402344Zm0,0" fill="#737373"/></g></g></g><g style="mix-blend-mode:multiply"><g transform="translate(291.021637 65.25)"><g><path d="M2.167969,-1.425781C2.167969,-0.652344,2.789062,0,3.597656,0h13.015625c4.246094,0,8.03125-2.199219,8.03125-6.507812c0-2.046876-.871093-3.9375-2.914062-5.023438c1.519531-1.238281,2.042969-2.449219,2.042969-4c0-4.492188-3.996094-6.167969-7.871094-6.167969h-12.304688c-.808594,0-1.429687.652344-1.429687,1.425781Zm13.796875-16.179688c1.269531,0,2.105468.773438,2.105468,2.167969s-.835937,2.171875-2.105468,2.171875h-8.089844v-4.339844Zm.558594,8.304688c1.609374,0,2.417968,1.054687,2.417968,2.605469s-.808594,2.605468-2.417968,2.605468h-8.648438v-5.210937Zm0,0" fill="#737373"/></g></g></g><g style="mix-blend-mode:multiply"><g transform="translate(316.593475 65.25)"><g><path d="M0.371094,-1.394531C0.15625,-0.621094,0.621094,0,1.425781,0h2.976563c.804687,0,1.582031-.621094,1.796875-1.425781l1.023437-3.8125h10.757813v3.8125C17.980469,-0.621094,18.597656,0,19.40625,0h2.851562c.773438,0,1.425782-.621094,1.425782-1.394531v-18.910157c0-.742187-.558594-1.394531-1.304688-1.394531h-8.152344c-4.398437,0-8.769531,1.085938-10.042968,5.890625Zm9.300781-12.988281c.496094-1.859376,2.046875-3.039063,3.996094-3.039063h4.3125v7.90625h-9.640625Zm0,0" fill="#737373"/></g></g></g><g style="mix-blend-mode:multiply"><g transform="translate(342.444244 65.25)"><g><path d="M6.449219,0C7.222656,0,7.875,-0.621094,7.875,-1.394531v-7.347657h3.253906c1.953125,0,3.097656,1.273438,4.246094,3.101563l2.664062,4.214844C18.535156,-0.621094,19.589844,0,20.367188,0h3.46875c.808593,0,1.023437-.621094.527343-1.425781L20.582031,-7.4375c-.867187-1.335938-2.417969-3.226562-3.90625-3.535156c2.109375-.496094,3.132813-1.953125,3.90625-3.347656l3.285157-5.953126c.464843-.835937.3125-1.457031-.464844-1.457031h-3.5c-.777344,0-1.613282.464844-2.171875,1.457031l-2.355469,4.1875c-1.210938,2.167969-2.480469,3.066407-4.246094,3.066407h-3.253906v-7.253907c0-.804687-.652344-1.457031-1.425781-1.457031h-2.851563c-.777344,0-1.429687.652344-1.429687,1.457031v18.816407C2.167969,-0.652344,2.820312,0,3.597656,0Zm0,0" fill="#737373"/></g></g></g><g style="mix-blend-mode:multiply"><g transform="translate(367.086182 65.25)"><g><path d="M2.167969,-1.394531C2.167969,-0.621094,2.820312,0,3.597656,0h2.820313C7.222656,0,7.875,-0.652344,7.875,-1.425781v-18.847657c0-.804687-.652344-1.425781-1.457031-1.425781h-2.820313c-.777344,0-1.429687.621094-1.429687,1.425781Zm0,0" fill="#737373"/></g></g></g><g style="mix-blend-mode:multiply"><g transform="translate(197.966217 107.999992)"><g><path d="M13.390625,-17.421875c2.976563,0,5.175781.621094,5.175781,4.15625c0,3.53125-2.199218,4.152344-5.175781,4.152344h-5.515625v-8.308594Zm-9.824219-4.277344c-.777344,0-1.398437.621094-1.398437,1.425781v18.847657C2.167969,-0.652344,2.820312,0,3.597656,0h2.851563C7.253906,0,7.875,-0.652344,7.875,-1.425781v-3.410157h7.25c5.765625,0,9.144531-2.601562,9.144531-8.429687s-3.378906-8.433594-9.144531-8.433594Zm0,0" fill="#737373"/></g></g></g><g style="mix-blend-mode:multiply"><g transform="translate(222.856125 107.999992)"><g><path d="M0.371094,-1.394531C0.15625,-0.621094,0.621094,0,1.425781,0h2.976563c.804687,0,1.582031-.621094,1.796875-1.425781l1.023437-3.8125h10.757813v3.8125C17.980469,-0.621094,18.597656,0,19.40625,0h2.851562c.773438,0,1.425782-.621094,1.425782-1.394531v-18.910157c0-.742187-.558594-1.394531-1.304688-1.394531h-8.152344c-4.398437,0-8.769531,1.085938-10.042968,5.890625Zm9.300781-12.988281c.496094-1.859376,2.046875-3.039063,3.996094-3.039063h4.3125v7.90625h-9.640625Zm0,0" fill="#737373"/></g></g></g><g style="mix-blend-mode:multiply"><g transform="translate(248.706909 107.999992)"><g><path d="M6.261719,0C7.035156,0,7.6875,-0.652344,7.6875,-1.425781v-12.988281l8.371094,12.988281C16.550781,-0.652344,17.453125,0,18.257812,0h5.019532c.808594,0,1.425781-.652344,1.425781-1.425781v-18.847657c0-.804687-.617187-1.425781-1.425781-1.425781h-2.601563c-.773437,0-1.425781.621094-1.425781,1.394531v14.105469l-9.144531-14.074219c-.464844-.710937-1.332031-1.425781-2.078125-1.425781h-4.460938c-.777344,0-1.398437.652344-1.398437,1.425781v18.847657C2.167969,-0.652344,2.820312,0,3.597656,0Zm0,0" fill="#737373"/></g></g></g><g style="mix-blend-mode:multiply"><g transform="translate(275.580566 107.999992)"><g><path d="M21.046875,-21.699219h-17.449219c-.777344,0-1.429687.621094-1.429687,1.394531v18.847657C2.167969,-0.652344,2.789062,0,3.597656,0h17.386719c.808594,0,1.425781-.652344,1.425781-1.425781v-1.457031c0-.773438-.617187-1.394532-1.394531-1.394532h-13.140625v-4.464844h11.34375c.773438,0,1.425781-.648437,1.425781-1.425781v-1.425781c0-.773438-.652343-1.425781-1.425781-1.425781h-11.34375v-4.402344h13.171875c.773437,0,1.425781-.617187,1.425781-1.425781v-1.425782c0-.804687-.652344-1.425781-1.425781-1.425781Zm0,0" fill="#737373"/></g></g></g><g style="mix-blend-mode:multiply"><g transform="translate(298.672699 107.999992)"><g><path d="M3.597656,-21.699219c-.808594,0-1.429687.652344-1.429687,1.457031v18.847657C2.167969,-0.621094,2.820312,0,3.597656,0h17.449219c.773437,0,1.425781-.621094,1.425781-1.425781v-1.425781c0-.804688-.652344-1.425782-1.425781-1.425782h-13.171875v-15.964844c0-.804687-.621094-1.457031-1.425781-1.457031Zm0,0" fill="#737373"/></g></g></g><g clip-path="url(#ec8Xgezavuo65)"><g id="ec8Xgezavuo63_tr" transform="translate(79.445313,75.035156) rotate(12690)"><g transform="translate(-79.445312,-75.035156)"><path d="M79.445312,23.660156c-7.144531,0-13.492187,3.542969-17.382812,8.964844-1.304688-.25-2.648438-.402344-4.023438-.402344-11.769531,0-21.40625,9.636719-21.40625,21.40625c0,1.390625.15625,2.75.410157,4.074219-5.402344,3.894531-8.972657,10.203125-8.972657,17.332031c0,7.148438,3.542969,13.496094,8.964844,17.386719-.25,1.304687-.402344,2.648437-.402344,4.019531c0,11.773438,9.636719,21.40625,21.40625,21.40625c1.390626,0,2.75-.152344,4.074219-.40625c3.894531,5.402344,10.203125,8.96875,17.332031,8.96875c7.148438,0,13.496094-3.542968,17.386719-8.960937c1.304688.25,2.648438.398437,4.019531.398437c11.773438,0,21.40625-9.632812,21.40625-21.40625c0-1.386718-.152343-2.746094-.40625-4.070312c5.402344-3.894532,8.96875-10.203125,8.96875-17.335938c0-7.144531-3.542968-13.492187-8.960937-17.382812.25-1.304688.398437-2.648438.398437-4.023438c0-11.769531-9.632812-21.40625-21.40625-21.40625-1.386718,0-2.746093.15625-4.070312.410156-3.894531-5.402343-10.203125-8.972656-17.335938-8.972656Zm0,8.5625c4.773438,0,8.859376,2.578125,11.074219,6.398438.152344.652344.441407,1.238281.867188,1.757812.566406,1.453125.902343,3.023438.902343,4.6875-5.125,0-9.695312,2.339844-12.84375,5.945313-.066406-.074219-.15625-.132813-.222656-.207031-.808594-6.066407-4.144531-11.328126-8.949218-14.691407c2.328124-2.382812,5.550781-3.890625,9.171874-3.890625Zm-21.40625,8.5625c1.503907,0,2.929688.269532,4.257813.738282.136719.058593.277344.113281.417969.160156c1.902344.746094,3.5625,1.945312,4.898437,3.441406-.335937-.019531-.667969-.058594-1.011719-.058594-6.34375,0-11.859374,3.558594-14.816406,8.730469-.761718-.082031-1.523437-.167969-2.308594-.167969-1.449218,0-2.867187.148438-4.238281.429688-.003906-.144532-.042969-.28125-.042969-.429688c0-7.140625,5.703126-12.84375,12.84375-12.84375Zm42.8125,0c7.144532,0,12.84375,5.703125,12.84375,12.84375c0,1.570313-.277343,3.0625-.785156,4.441406-.738281,2.003907-1.984375,3.75-3.554687,5.144532.023437-.339844.058593-.675782.058593-1.023438c0-6.34375-3.554687-11.859375-8.726562-14.816406.082031-.761719.164062-1.523438.164062-2.308594c0-1.449218-.144531-2.867187-.425781-4.238281.144531-.003906.28125-.042969.425781-.042969Zm-34.25,12.84375c2.054688,0,3.898438.726563,5.363282,1.898438c0,.007812.003906.011718.007812.019531.226563.242187.480469.457031.761719.640625c1.503906,1.539062,2.429687,3.648438,2.429687,6.003906c0,.28125-.046874.550782-.074218.820313-3.542969,1.304687-6.351563,4.109375-7.660156,7.652343-.273438.035157-.554688.089844-.828126.089844-4.777343,0-8.5625-3.78125-8.5625-8.5625c0-4.777344,3.785157-8.5625,8.5625-8.5625Zm25.6875,0c4.78125,0,8.5625,3.785156,8.5625,8.5625c0,2.054688-.722656,3.898438-1.894531,5.363282-.007812,0-.011719.003906-.019531.007812-.242188.226562-.457031.480469-.644531.761719-1.535157,1.503906-3.644531,2.429687-6.003907,2.429687-.277343,0-.546874-.046875-.816406-.074218-1.304687-3.542969-4.109375-6.351563-7.652344-7.660157-.035156-.273437-.09375-.554687-.09375-.828125c0-4.777344,3.785157-8.5625,8.5625-8.5625Zm-42.8125,8.5625c0,5.128906,2.339844,9.699219,5.945313,12.84375-.074219.070313-.132813.160156-.207031.226563-6.066406.808593-11.328125,4.144531-14.691406,8.949219-2.382813-2.328126-3.890626-5.550782-3.890626-9.175782c0-4.769531,2.578126-8.855468,6.398438-11.070312.652344-.152344,1.238281-.441406,1.757812-.867188c1.453126-.566406,3.023438-.90625,4.6875-.90625Zm68.894532,3.671875c2.382812,2.328125,3.886718,5.550781,3.886718,9.171875c0,5.042969-2.871093,9.316406-7.054687,11.425782-.242187.101562-.46875.226562-.6875.375-1.5625.667968-3.28125,1.042968-5.101563,1.042968c0-5.125-2.335937-9.695312-5.945312-12.84375.078125-.066406.136719-.15625.210938-.222656c6.066406-.808594,11.328124-4.144531,14.691406-8.949219Zm-38.875,4.941407c.179687.035156.355468.058593.535156.066406c1.882812.257812,3.28125,1.628906,3.570312,3.496094.007813.242187.03125.480468.078126.71875-.035157.179687-.058594.355468-.066407.535156-.257812,1.882812-1.628906,3.28125-3.496093,3.570312-.242188.007813-.484376.03125-.71875.078125-.179688-.035156-.355469-.058593-.535157-.070312-1.882812-.253907-3.28125-1.625-3.570312-3.492188-.007813-.242187-.03125-.484375-.078125-.71875.035156-.179687.058594-.355469.066406-.535156.257812-1.882813,1.628906-3.28125,3.496094-3.570313.242187-.007812.484375-.03125.71875-.078124ZM66.601562,79.316406c.28125,0,.550782.050782.820313.078125c1.304687,3.542969,4.109375,6.351563,7.652344,7.660157.035156.273437.089843.554687.089843.824218c0,4.78125-3.78125,8.5625-8.5625,8.5625-.710937,0-1.394531-.105468-2.054687-.265625-.082031-.03125-.167969-.058593-.25-.082031-.054687-.015625-.105469-.035156-.160156-.050781-.015625-.003907-.027344-.007813-.042969-.007813-3.519531-1.0625-6.054688-4.257812-6.054688-8.15625c0-4.777344,3.785157-8.5625,8.5625-8.5625Zm25.6875,0c4.78125,0,8.5625,3.785156,8.5625,8.5625c0,4.78125-3.78125,8.5625-8.5625,8.5625-2.050781,0-3.894531-.722656-5.359374-1.894531-.003907-.003906-.003907-.015625-.007813-.019531-.226563-.242188-.480469-.457032-.761719-.644532-1.503906-1.535156-2.433594-3.644531-2.433594-6.003906c0-.277344.050782-.546875.078126-.816406c3.542968-1.304688,6.351562-4.113281,7.660156-7.652344.273437-.035156.554687-.09375.824218-.09375ZM49.535156,86.867188c-.019531.339843-.058594.671874-.058594,1.011718c0,6.347656,3.558594,11.863282,8.730469,14.820313-.082031.761719-.167969,1.523437-.167969,2.304687c0,1.453125.148438,2.867188.429688,4.242188-.144531.003906-.28125.039062-.429688.039062-7.140624,0-12.84375-5.699218-12.84375-12.84375c0-1.5.269532-2.925781.738282-4.253906.0625-.148438.121094-.296875.167968-.453125.746094-1.886719,1.945313-3.535156,3.433594-4.867187Zm64.121094,9.148437c.003906.144531.039062.28125.039062.425781c0,7.144532-5.699218,12.84375-12.84375,12.84375-1.5,0-2.925781-.269531-4.253906-.734375-.148437-.0625-.296875-.121093-.453125-.167969-1.886719-.746093-3.542969-1.9375-4.875-3.4375.339844.023438.675781.058594,1.019531.058594c6.347657,0,11.863282-3.554687,14.820313-8.726562.761719.082031,1.523437.164062,2.304687.164062c1.453126,0,2.871094-.144531,4.242188-.425781ZM79.445312,99.058594c.078126.089844.175782.152344.253907.234375.8125,6.058593,4.128906,11.3125,8.921875,14.667969-2.328125,2.382812-5.550782,3.886718-9.175782,3.886718-4.769531,0-8.855468-2.574218-11.070312-6.394531-.152344-.652344-.441406-1.238281-.867188-1.757813-.566406-1.453124-.90625-3.023437-.90625-4.691406c5.128907,0,9.699219-2.335937,12.84375-5.945312Zm0,0" transform="translate(.000001 0)" fill="#737373"/></g></g><clipPath id="ec8Xgezavuo65"><path d="M28.070312,23.660156h102.75v102.75h-102.75Zm0,0"/></clipPath></g></svg>
