<svg xmlns="http://www.w3.org/2000/svg" viewBox="0 0 449.24 58.49">
  <g>
    <g>
      <path d="M84.77,21.56H89a6.15,6.15,0,0,1,3.62,1,5.88,5.88,0,0,1,2,2.48,7,7,0,0,1,.55,3.2,8.25,8.25,0,0,1-.84,3.2,6.74,6.74,0,0,1-2.11,2.46,5.46,5.46,0,0,1-3.29,1,4.38,4.38,0,0,1-2.23-.47,2.55,2.55,0,0,1-1.06-1.14,2.38,2.38,0,0,1-.13-1.4,3.13,3.13,0,0,1,.52-1.27.92.92,0,0,0,.52.46,3.48,3.48,0,0,0,.86.24,5.09,5.09,0,0,0,1,.09,4,4,0,0,0,.76-.06,2.38,2.38,0,0,0,1.28-.65,3.22,3.22,0,0,0,.79-1.2A4,4,0,0,0,91.49,28a3.24,3.24,0,0,0-.31-1.42,2.6,2.6,0,0,0-1-1.07,3.19,3.19,0,0,0-1.71-.42h-3.1V40.55H81.74V24.9a3.91,3.91,0,0,1,.69-2.41A2.73,2.73,0,0,1,84.77,21.56Z" transform="translate(-10.25 -15.89)"/>
      <path d="M97.38,21.62h13.13a4.12,4.12,0,0,1-.25,1.49,3.35,3.35,0,0,1-.66,1.12,2.76,2.76,0,0,1-.94.69,2.63,2.63,0,0,1-1.14.25h-2.19V40.55h-3.7V25.17H97.38Z" transform="translate(-10.25 -15.89)"/>
      <path d="M115.8,37.08a1.89,1.89,0,0,1,1.42.6,2,2,0,0,1,0,2.82,1.92,1.92,0,0,1-1.42.59,2,2,0,0,1-1.43-.59,2,2,0,0,1,0-2.82A2,2,0,0,1,115.8,37.08Z" transform="translate(-10.25 -15.89)"/>
      <path d="M135.31,21.59a6.83,6.83,0,0,1,2.2.33,12.08,12.08,0,0,1,1.77.73,7.19,7.19,0,0,1,2.66,2.26,9.84,9.84,0,0,1,1.5,3.21,11.63,11.63,0,0,1,.37,3.64,10.72,10.72,0,0,1-.76,3.55,9.19,9.19,0,0,1-1.91,2.95,6.79,6.79,0,0,1-3,1.83,8.92,8.92,0,0,1-1.93.31c-.82.07-1.68.11-2.59.14s-1.82,0-2.73,0h-2.37V24.81a5.2,5.2,0,0,1,.16-1.27,2.74,2.74,0,0,1,.54-1,2.57,2.57,0,0,1,1-.68,4.18,4.18,0,0,1,1.52-.24ZM132.16,37h2.27a9.22,9.22,0,0,0,2-.2,4.78,4.78,0,0,0,1.63-.72,4.37,4.37,0,0,0,1.29-1.54,7.18,7.18,0,0,0,.65-1.93,8.45,8.45,0,0,0,.16-2.19,8,8,0,0,0-.44-2.13,4.76,4.76,0,0,0-1.11-1.75,5.16,5.16,0,0,0-1.51-1,4.63,4.63,0,0,0-1.84-.38h-3.06Z" transform="translate(-10.25 -15.89)"/>
      <path d="M156.27,35.13a7.69,7.69,0,0,1-2.7.27,4.54,4.54,0,0,1-2-.58,2.27,2.27,0,0,1-1-1.27,2.51,2.51,0,0,1,.15-1.8,3.26,3.26,0,0,0,2,.77,13,13,0,0,0,2.17,0,2.92,2.92,0,0,0,1.33-.38,1.29,1.29,0,0,0,.56-.69,1.22,1.22,0,0,0-.09-.83,2,2,0,0,0-.61-.78,3.25,3.25,0,0,0-1-.57,3.53,3.53,0,0,0-1.36-.19,4.36,4.36,0,0,0-1.51.38,4.25,4.25,0,0,0-1.26.89,4.5,4.5,0,0,0-.87,1.33,4.58,4.58,0,0,0-.36,1.68,4.69,4.69,0,0,0,.18,1.49,4.53,4.53,0,0,0,.61,1.34,4.22,4.22,0,0,0,1,1,2.86,2.86,0,0,0,1.32.53,4.57,4.57,0,0,0,2.13-.14,4.53,4.53,0,0,0,1.95-1.19l2.88,1.38A6.69,6.69,0,0,1,157,40.13a8.15,8.15,0,0,1-3.51.72,7.55,7.55,0,0,1-3.22-.64,6.71,6.71,0,0,1-2.3-1.69,7,7,0,0,1-1.37-2.4,7.88,7.88,0,0,1,.12-5.47,7.2,7.2,0,0,1,1.51-2.37,6,6,0,0,1,2.56-1.65,9.34,9.34,0,0,1,3-.49,6.93,6.93,0,0,1,2.93.57,5.74,5.74,0,0,1,2,1.45,4.48,4.48,0,0,1,1,1.95,4.14,4.14,0,0,1,0,2.07,3.89,3.89,0,0,1-1.14,1.8A4.9,4.9,0,0,1,156.27,35.13Z" transform="translate(-10.25 -15.89)"/>
      <path d="M163.69,24.35a2.66,2.66,0,0,1,.29-1.28,2.37,2.37,0,0,1,.77-.86,3.48,3.48,0,0,1,1.11-.47,5.55,5.55,0,0,1,1.29-.15v5h3.18a6.24,6.24,0,0,1-.1,1.06,2.52,2.52,0,0,1-.37.93,2,2,0,0,1-.74.68,2.5,2.5,0,0,1-1.21.25h-.76v7.67a.63.63,0,0,0,.33.61,1.44,1.44,0,0,0,.76.16,2.3,2.3,0,0,0,.88-.2,1.33,1.33,0,0,0,.63-.52,2,2,0,0,1,0,1.59,2.52,2.52,0,0,1-1,1.11,3.8,3.8,0,0,1-1.56.54,3.72,3.72,0,0,1-1.67-.13,2.91,2.91,0,0,1-1.33-.93,2.76,2.76,0,0,1-.55-1.8v-8.1h-1.75V26.63h1.75Z" transform="translate(-10.25 -15.89)"/>
      <path d="M172.52,26.47h3.07v1.78a4.09,4.09,0,0,1,1.19-1.5,3.15,3.15,0,0,1,3.47-.19,2.84,2.84,0,0,1,1,1.22,2.62,2.62,0,0,1,.15,1.46,1.84,1.84,0,0,1-.74,1.18,1.38,1.38,0,0,0-.95-.88,2.47,2.47,0,0,0-1.47.05,3.27,3.27,0,0,0-1.38,1,3.23,3.23,0,0,0-.73,1.84c0,.43,0,.86,0,1.29v6.86h-3.56Z" transform="translate(-10.25 -15.89)"/>
      <path d="M189.92,26.2a7.31,7.31,0,0,1,3.85,1,7.81,7.81,0,0,1,2.64,2.63,7.34,7.34,0,0,1,1,3.55,7.31,7.31,0,0,1-3.36,6.28A7.77,7.77,0,0,1,191,40.84a7.64,7.64,0,0,1-3.31-.28,7.09,7.09,0,0,1-3-1.8,7.36,7.36,0,0,1-1.89-7.34,3,3,0,0,1,.81-1.3,3.74,3.74,0,0,1,1.27-.76,4.12,4.12,0,0,1,1.48-.21,4,4,0,0,1,1.43.31,3,3,0,0,1,1.11.81,2.27,2.27,0,0,1,.53,1.29,1.68,1.68,0,0,0-1-.31,2.37,2.37,0,0,0-1.11.24,2.24,2.24,0,0,0-1.28,2.1,4,4,0,0,0,.58,2.25,3.76,3.76,0,0,0,1.44,1.34,4,4,0,0,0,3.72,0,3.85,3.85,0,0,0,1.44-1.37,4.19,4.19,0,0,0,.58-2.26,4.25,4.25,0,0,0-.39-1.87,3.73,3.73,0,0,0-1-1.34,3.55,3.55,0,0,0-1.49-.74,4.4,4.4,0,0,0-1.81,0,3,3,0,0,0-1-.77,4.08,4.08,0,0,0-1.27-.38,4.5,4.5,0,0,0-1.37,0,3.92,3.92,0,0,0-1.29.47,7.84,7.84,0,0,1,2.55-2A7.2,7.2,0,0,1,189.92,26.2Z" transform="translate(-10.25 -15.89)"/>
      <path d="M202,20.75a2.15,2.15,0,0,1,1.59.68,2.1,2.1,0,0,1,.69,1.6,2.23,2.23,0,0,1-.66,1.62,2.14,2.14,0,0,1-.89.53l-1,.3a6.11,6.11,0,0,0-.94.35,1.11,1.11,0,0,0-.58.66,10.1,10.1,0,0,1-.29-1.11,8,8,0,0,1-.19-1.41,6.1,6.1,0,0,1,.08-1.42,2.09,2.09,0,0,1,.59-1.15A2.19,2.19,0,0,1,202,20.75Zm-1.78,8.61a3.26,3.26,0,0,1,.35-1.35,2.45,2.45,0,0,1,.75-.87,3.31,3.31,0,0,1,1.08-.47,5.72,5.72,0,0,1,1.36-.15v14h-3.54Z" transform="translate(-10.25 -15.89)"/>
      <path d="M208.47,24.35a2.55,2.55,0,0,1,.29-1.28,2.34,2.34,0,0,1,.76-.86,3.48,3.48,0,0,1,1.11-.47,5.55,5.55,0,0,1,1.29-.15v5h3.18a5.36,5.36,0,0,1-.1,1.06,2.36,2.36,0,0,1-.37.93,2,2,0,0,1-.74.68,2.49,2.49,0,0,1-1.2.25h-.77v7.67a.63.63,0,0,0,.33.61A1.46,1.46,0,0,0,213,38a2.29,2.29,0,0,0,.87-.2,1.24,1.24,0,0,0,.63-.52,2,2,0,0,1,0,1.59,2.5,2.5,0,0,1-1,1.11,3.91,3.91,0,0,1-1.56.54,3.76,3.76,0,0,1-1.68-.13,2.84,2.84,0,0,1-1.32-.93,2.71,2.71,0,0,1-.55-1.8v-8.1h-1.76V26.63h1.76Z" transform="translate(-10.25 -15.89)"/>
      <path d="M224.14,24.46a3.22,3.22,0,0,1,.18-1.08,2.76,2.76,0,0,1,.54-.92,2.46,2.46,0,0,1,.9-.64,3.24,3.24,0,0,1,1.25-.23h.61l8.25,12.49V21.59h3.64v19H236l-8.24-12.43V40.55h-3.65Z" transform="translate(-10.25 -15.89)"/>
      <path d="M251.9,35.13a7.69,7.69,0,0,1-2.7.27,4.54,4.54,0,0,1-2-.58,2.27,2.27,0,0,1-1-1.27,2.56,2.56,0,0,1,.15-1.8,3.29,3.29,0,0,0,2,.77,13,13,0,0,0,2.17,0,2.92,2.92,0,0,0,1.33-.38,1.29,1.29,0,0,0,.56-.69,1.28,1.28,0,0,0-.08-.83,2.16,2.16,0,0,0-.62-.78,3.14,3.14,0,0,0-1-.57,3.53,3.53,0,0,0-1.36-.19,4.36,4.36,0,0,0-1.51.38,4.25,4.25,0,0,0-1.26.89,4.5,4.5,0,0,0-.87,1.33,4.58,4.58,0,0,0-.36,1.68,4.69,4.69,0,0,0,.18,1.49,4.55,4.55,0,0,0,.62,1.34,4,4,0,0,0,1,1,2.9,2.9,0,0,0,1.32.53,4.57,4.57,0,0,0,2.13-.14,4.47,4.47,0,0,0,1.95-1.19l2.88,1.38a6.69,6.69,0,0,1-2.66,2.37,8.15,8.15,0,0,1-3.51.72,7.55,7.55,0,0,1-3.22-.64,6.71,6.71,0,0,1-2.3-1.69,7,7,0,0,1-1.37-2.4,8,8,0,0,1,.12-5.47,7.2,7.2,0,0,1,1.51-2.37,6.08,6.08,0,0,1,2.56-1.65,9.34,9.34,0,0,1,3-.49,7,7,0,0,1,2.94.57,5.93,5.93,0,0,1,2,1.45,4.57,4.57,0,0,1,1,1.95,4.14,4.14,0,0,1,0,2.07A3.89,3.89,0,0,1,254.2,34,4.9,4.9,0,0,1,251.9,35.13Z" transform="translate(-10.25 -15.89)"/>
      <path d="M259.32,24.35a2.66,2.66,0,0,1,.29-1.28,2.37,2.37,0,0,1,.77-.86,3.48,3.48,0,0,1,1.11-.47,5.55,5.55,0,0,1,1.29-.15v5H266a6.24,6.24,0,0,1-.1,1.06,2.52,2.52,0,0,1-.37.93,2,2,0,0,1-.74.68,2.5,2.5,0,0,1-1.21.25h-.76v7.67a.63.63,0,0,0,.33.61,1.44,1.44,0,0,0,.76.16,2.3,2.3,0,0,0,.88-.2,1.33,1.33,0,0,0,.63-.52,2,2,0,0,1,0,1.59,2.52,2.52,0,0,1-1,1.11,3.8,3.8,0,0,1-1.56.54,3.72,3.72,0,0,1-1.67-.13,2.91,2.91,0,0,1-1.33-.93,2.76,2.76,0,0,1-.55-1.8v-8.1h-1.75V26.63h1.75Z" transform="translate(-10.25 -15.89)"/>
      <path d="M267.6,26.55h3.45l2.88,8,2.33-6a3.73,3.73,0,0,1,.56-1,2.61,2.61,0,0,1,.69-.61,2.2,2.2,0,0,1,.79-.28,3.52,3.52,0,0,1,.86,0l3,7.88,2.16-6a3.35,3.35,0,0,1,.78-1.27,2.81,2.81,0,0,1,1.05-.66,2.85,2.85,0,0,1,1.16-.18,4.39,4.39,0,0,1,1.18.22l-5.13,14h-2.27l-3-8-3.13,8H272.7Z" transform="translate(-10.25 -15.89)"/>
      <path d="M296.15,26.2a7.26,7.26,0,0,1,3.85,1,7.76,7.76,0,0,1,2.65,2.63,7.22,7.22,0,0,1,1,3.55,7.34,7.34,0,0,1-3.35,6.28,7.75,7.75,0,0,1-3.1,1.16,7.6,7.6,0,0,1-3.3-.28,7,7,0,0,1-3-1.8,7.36,7.36,0,0,1-2-3.44,7.28,7.28,0,0,1,.09-3.9,3,3,0,0,1,.8-1.3,3.78,3.78,0,0,1,1.28-.76,4.09,4.09,0,0,1,1.48-.21,3.92,3.92,0,0,1,1.42.31,3,3,0,0,1,1.11.81,2.35,2.35,0,0,1,.54,1.29,1.74,1.74,0,0,0-1-.31,2.42,2.42,0,0,0-1.11.24,2.26,2.26,0,0,0-.9.79,2.2,2.2,0,0,0-.37,1.31,4.13,4.13,0,0,0,.57,2.25,3.91,3.91,0,0,0,1.44,1.34,3.89,3.89,0,0,0,5.17-1.38,4.19,4.19,0,0,0,.57-2.26,4.4,4.4,0,0,0-.38-1.87,3.85,3.85,0,0,0-1-1.34,3.67,3.67,0,0,0-1.49-.74,4.41,4.41,0,0,0-1.81,0,3.15,3.15,0,0,0-1-.77,4.14,4.14,0,0,0-1.28-.38,4.51,4.51,0,0,0-1.37,0,4,4,0,0,0-1.28.47,7.91,7.91,0,0,1,2.54-2A7.2,7.2,0,0,1,296.15,26.2Z" transform="translate(-10.25 -15.89)"/>
      <path d="M305.88,26.47H309v1.78a4.2,4.2,0,0,1,1.19-1.5,3.15,3.15,0,0,1,3.47-.19,2.77,2.77,0,0,1,1,1.22,2.62,2.62,0,0,1,.15,1.46,1.8,1.8,0,0,1-.74,1.18,1.38,1.38,0,0,0-.95-.88,2.44,2.44,0,0,0-1.46.05,3.24,3.24,0,0,0-1.39,1,3.15,3.15,0,0,0-.72,1.84q-.06.65-.06,1.29v6.86h-3.56Z" transform="translate(-10.25 -15.89)"/>
      <path d="M321,32.51l3-3.28a11.36,11.36,0,0,1,1.78-1.63,4,4,0,0,1,2.11-.7,4.33,4.33,0,0,1,1.15.09,2.09,2.09,0,0,1,.91.44,1.48,1.48,0,0,1,.46.78,2,2,0,0,1-.14,1.15.56.56,0,0,0-.39-.25,1.61,1.61,0,0,0-.69,0,3.06,3.06,0,0,0-.86.34,3.49,3.49,0,0,0-.91.77l-2.9,3.17,6.69,7.15H326.9L321,34.24v6.31h-3.48V24.35a2.47,2.47,0,0,1,.95-2,3.83,3.83,0,0,1,2.53-.72Z" transform="translate(-10.25 -15.89)"/>
      <path d="M343.64,40.55H340V24.44a2.52,2.52,0,0,1,1-2.12,4.15,4.15,0,0,1,2.65-.73Z" transform="translate(-10.25 -15.89)"/>
      <path d="M350.16,28.15a2.18,2.18,0,0,1,.67-.84,4.58,4.58,0,0,1,1-.6,6.53,6.53,0,0,1,1.13-.38,6.35,6.35,0,0,1,1.06-.16,5.58,5.58,0,0,1,2.06.28,4.85,4.85,0,0,1,1.86,1.18,5.07,5.07,0,0,1,1.24,3.66v9.26h-3.51c0-.31,0-.72,0-1.24s0-1.1,0-1.72V35.65c0-.67,0-1.3,0-1.9s-.05-1.13-.08-1.6a7.8,7.8,0,0,0-.14-1,2.16,2.16,0,0,0-.84-1.3,2.26,2.26,0,0,0-1.33-.44,2,2,0,0,0-1.45.5,1.78,1.78,0,0,0-.52,1.32,1.73,1.73,0,0,1-.66-.45,2.49,2.49,0,0,1-.49-.72V40.55h-3.53v-14h3.53Z" transform="translate(-10.25 -15.89)"/>
      <path d="M372.19,39a6.46,6.46,0,0,1-2.2,1.43,6.31,6.31,0,0,1-2.4.4,6.16,6.16,0,0,1-4.32-2,7.42,7.42,0,0,1-1.38-2.24,7.84,7.84,0,0,1-.52-2.95,7.31,7.31,0,0,1,2.07-5.22A6.54,6.54,0,0,1,365.59,27a5.71,5.71,0,0,1,2.52-.46,4.07,4.07,0,0,1,2.15.57,3.15,3.15,0,0,1,1.12,1.19,2.85,2.85,0,0,1,.33,1.37,2.29,2.29,0,0,1-.26,1.12,2.28,2.28,0,0,0-1.3-.88,6.1,6.1,0,0,0-1.58-.23,3.42,3.42,0,0,0-2.06.6,3.7,3.7,0,0,0-1.26,1.49,4.33,4.33,0,0,0-.43,1.93,4.65,4.65,0,0,0,.41,1.94,3.93,3.93,0,0,0,1.23,1.49,3.47,3.47,0,0,0,2.09.59,3,3,0,0,0,1.76-.47A3.45,3.45,0,0,0,371.42,36a5.7,5.7,0,0,0,.59-1.7,9.74,9.74,0,0,0,.18-1.85V21.62a3.9,3.9,0,0,1,2.54.86,2.49,2.49,0,0,1,.91,1.9V40.52h-3.45Z" transform="translate(-10.25 -15.89)"/>
      <path d="M385.26,26.2a7.26,7.26,0,0,1,3.85,1,7.76,7.76,0,0,1,2.65,2.63,7.22,7.22,0,0,1,1,3.55,7.34,7.34,0,0,1-3.35,6.28,7.75,7.75,0,0,1-3.1,1.16,7.59,7.59,0,0,1-3.3-.28,7,7,0,0,1-3-1.8,7.36,7.36,0,0,1-2-3.44,7.18,7.18,0,0,1,.09-3.9,3,3,0,0,1,.8-1.3,3.78,3.78,0,0,1,1.28-.76,4.09,4.09,0,0,1,1.48-.21,3.92,3.92,0,0,1,1.42.31,3,3,0,0,1,1.11.81,2.35,2.35,0,0,1,.54,1.29,1.74,1.74,0,0,0-1-.31,2.42,2.42,0,0,0-1.11.24,2.26,2.26,0,0,0-1.27,2.1,4.13,4.13,0,0,0,.57,2.25,3.91,3.91,0,0,0,1.44,1.34,3.89,3.89,0,0,0,5.17-1.38,4.19,4.19,0,0,0,.57-2.26,4.4,4.4,0,0,0-.38-1.87,3.85,3.85,0,0,0-1-1.34,3.67,3.67,0,0,0-1.49-.74,4.41,4.41,0,0,0-1.81,0,3.15,3.15,0,0,0-1-.77,4.14,4.14,0,0,0-1.28-.38,4.51,4.51,0,0,0-1.37,0,4,4,0,0,0-1.28.47,7.91,7.91,0,0,1,2.54-2A7.2,7.2,0,0,1,385.26,26.2Z" transform="translate(-10.25 -15.89)"/>
      <path d="M398.52,28.15a2.11,2.11,0,0,1,.68-.84,4.35,4.35,0,0,1,1-.6,6.43,6.43,0,0,1,1.12-.38,6.31,6.31,0,0,1,1.07-.16,5.53,5.53,0,0,1,2.05.28,4.88,4.88,0,0,1,1.87,1.18,5.06,5.06,0,0,1,1.23,3.66v9.26H404c0-.31,0-.72,0-1.24s0-1.1,0-1.72V35.65c0-.67,0-1.3,0-1.9s0-1.13-.08-1.6a6.37,6.37,0,0,0-.14-1,2.11,2.11,0,0,0-.83-1.3,2.28,2.28,0,0,0-1.33-.44,2,2,0,0,0-1.45.5,1.75,1.75,0,0,0-.53,1.32,1.78,1.78,0,0,1-.65-.45,2.53,2.53,0,0,1-.5-.72V40.55H395v-14h3.53Z" transform="translate(-10.25 -15.89)"/>
      <path d="M420,35.13a7.65,7.65,0,0,1-2.7.27,4.54,4.54,0,0,1-2-.58,2.27,2.27,0,0,1-1-1.27,2.61,2.61,0,0,1,.15-1.8,3.31,3.31,0,0,0,2,.77,13,13,0,0,0,2.17,0,2.88,2.88,0,0,0,1.33-.38,1.25,1.25,0,0,0,.56-.69,1.22,1.22,0,0,0-.08-.83,2.16,2.16,0,0,0-.62-.78,3.14,3.14,0,0,0-1-.57,3.51,3.51,0,0,0-1.36-.19,4.25,4.25,0,0,0-1.5.38,4,4,0,0,0-1.26.89,4.34,4.34,0,0,0-.88,1.33,4.58,4.58,0,0,0-.36,1.68,5,5,0,0,0,.18,1.49,4.55,4.55,0,0,0,.62,1.34,4,4,0,0,0,1,1,3,3,0,0,0,1.32.53,4.61,4.61,0,0,0,2.14-.14,4.44,4.44,0,0,0,1.94-1.19l2.88,1.38a6.69,6.69,0,0,1-2.66,2.37,8.15,8.15,0,0,1-3.51.72,7.59,7.59,0,0,1-3.22-.64,6.71,6.71,0,0,1-2.3-1.69,7,7,0,0,1-1.37-2.4,8,8,0,0,1,.13-5.47,7.18,7.18,0,0,1,1.5-2.37,6.05,6.05,0,0,1,2.57-1.65,9.25,9.25,0,0,1,3-.49,6.93,6.93,0,0,1,2.93.57,5.84,5.84,0,0,1,2,1.45,4.46,4.46,0,0,1,1,1.95,4,4,0,0,1,0,2.07,3.89,3.89,0,0,1-1.14,1.8A4.85,4.85,0,0,1,420,35.13Z" transform="translate(-10.25 -15.89)"/>
      <path d="M432.94,30.83a2.17,2.17,0,0,0-.6-.83,2.91,2.91,0,0,0-.84-.47,2.82,2.82,0,0,0-.88-.18,1.57,1.57,0,0,0-.69.1.94.94,0,0,0-.65.55.71.71,0,0,0,.15.75,2.69,2.69,0,0,0,.78.52l1.2.57c.43.21.89.45,1.35.71a6.55,6.55,0,0,1,1.28.93,4.56,4.56,0,0,1,.94,1.27,3.78,3.78,0,0,1,.37,1.74,3.87,3.87,0,0,1-.52,2A4.29,4.29,0,0,1,433.45,40a5.72,5.72,0,0,1-1.95.74,6.41,6.41,0,0,1-4.34-.7,5.82,5.82,0,0,1-1.81-1.59l2.19-2.33A4.48,4.48,0,0,0,429,37.25a4.07,4.07,0,0,0,1.4.39,2,2,0,0,0,1.08-.19,1,1,0,0,0,.54-.62,1.1,1.1,0,0,0-.24-.87A3.2,3.2,0,0,0,430.5,35q-.87-.44-1.71-.9a7.77,7.77,0,0,1-1.48-1,4.8,4.8,0,0,1-1-1.27,3.25,3.25,0,0,1-.4-1.65,3.66,3.66,0,0,1,.41-1.74,4,4,0,0,1,1.1-1.27,4.63,4.63,0,0,1,1.56-.76,6.07,6.07,0,0,1,1.81-.21,4.38,4.38,0,0,1,2.42.69,2.46,2.46,0,0,1,1,1.38,2.11,2.11,0,0,1-.13,1.5A2.08,2.08,0,0,1,432.94,30.83Z" transform="translate(-10.25 -15.89)"/>
      <path d="M439.87,20.75a2.15,2.15,0,0,1,1.59.68,2.1,2.1,0,0,1,.69,1.6,2.23,2.23,0,0,1-.66,1.62,2.14,2.14,0,0,1-.89.53l-1,.3a6.4,6.4,0,0,0-.93.35,1.16,1.16,0,0,0-.59.66c-.09-.28-.18-.66-.28-1.11a9,9,0,0,1-.2-1.41,6.1,6.1,0,0,1,.09-1.42,2.09,2.09,0,0,1,.59-1.15A2.19,2.19,0,0,1,439.87,20.75Zm-1.78,8.61a3.43,3.43,0,0,1,.34-1.35,2.57,2.57,0,0,1,.76-.87,3.31,3.31,0,0,1,1.08-.47,5.72,5.72,0,0,1,1.36-.15v14h-3.54Z" transform="translate(-10.25 -15.89)"/>
      <path d="M455.46,39a6.54,6.54,0,0,1-2.26,1.46,6.18,6.18,0,0,1-2.45.42,6.37,6.37,0,0,1-2.4-.56,6.15,6.15,0,0,1-2.05-1.47,7.53,7.53,0,0,1-1.43-2.3,8.33,8.33,0,0,1-.53-3.05,7.65,7.65,0,0,1,.58-3,7.11,7.11,0,0,1,1.54-2.35,6.94,6.94,0,0,1,2.22-1.51,5.93,5.93,0,0,1,2.59-.47,4.12,4.12,0,0,1,2.11.58A3.41,3.41,0,0,1,454.55,28a3.29,3.29,0,0,1,.38,1.43,2.29,2.29,0,0,1-.23,1.15,2.19,2.19,0,0,0-1.32-.93,6,6,0,0,0-1.64-.24,3.56,3.56,0,0,0-2.11.61,3.91,3.91,0,0,0-1.29,1.54,4.77,4.77,0,0,0-.45,2,4.58,4.58,0,0,0,.41,2,3.76,3.76,0,0,0,1.29,1.54,3.59,3.59,0,0,0,2.15.61,3.11,3.11,0,0,0,1.81-.49,3.52,3.52,0,0,0,1.13-1.26,5.54,5.54,0,0,0,.61-1.73,10.35,10.35,0,0,0,.17-1.91V26.52H459v14h-3.57Z" transform="translate(-10.25 -15.89)"/>
    </g>
    <g>
      <path d="M158.66,49.57v2.64h-4.33v3.12h4.33a5.91,5.91,0,0,1-.11.92,3,3,0,0,1-.31.83,1.77,1.77,0,0,1-.53.59,1.45,1.45,0,0,1-.83.23h-2.55v5.76H152.2V51.94a3.33,3.33,0,0,1,.39-1.73,1.51,1.51,0,0,1,1.4-.64Z" transform="translate(-10.25 -15.89)"/>
      <path d="M168,62.51a3.81,3.81,0,0,1-1.32,1.09,3.06,3.06,0,0,1-1.43.31,3.14,3.14,0,0,1-1.4-.41,3.88,3.88,0,0,1-1.2-1.1,6.18,6.18,0,0,1-.83-1.71,7.55,7.55,0,0,1-.31-2.27,7,7,0,0,1,.34-2.23,5.56,5.56,0,0,1,.9-1.75,4.24,4.24,0,0,1,1.29-1.12,2.82,2.82,0,0,1,1.51-.35,2,2,0,0,1,1.23.43,2.4,2.4,0,0,1,.68.92,2.85,2.85,0,0,1,.23,1.06,2,2,0,0,1-.14.85,1.37,1.37,0,0,0-.77-.69,2.73,2.73,0,0,0-.95-.17,1.76,1.76,0,0,0-1.23.45,2.76,2.76,0,0,0-.76,1.14,4.22,4.22,0,0,0-.26,1.48,4,4,0,0,0,.24,1.49,2.84,2.84,0,0,0,.75,1.14,1.82,1.82,0,0,0,1.26.45,1.56,1.56,0,0,0,1-.36,2.45,2.45,0,0,0,.66-.93,5.09,5.09,0,0,0,.36-1.29,9.78,9.78,0,0,0,.1-1.42V53.23h2.08V63.66H168Z" transform="translate(-10.25 -15.89)"/>
      <path d="M177.4,56.43a1.65,1.65,0,0,0-.36-.61,1.55,1.55,0,0,0-.48-.35,1.29,1.29,0,0,0-.52-.13.7.7,0,0,0-.4.07.62.62,0,0,0-.38.41.61.61,0,0,0,.09.55,1.47,1.47,0,0,0,.45.39l.7.43c.26.15.52.33.79.52a4.42,4.42,0,0,1,.75.69,3.82,3.82,0,0,1,.55,1,3.56,3.56,0,0,1,.21,1.29,3.62,3.62,0,0,1-.3,1.52,2.88,2.88,0,0,1-1.94,1.61,3.07,3.07,0,0,1-1.28,0,3.2,3.2,0,0,1-1.26-.56A3.87,3.87,0,0,1,173,62.07l1.28-1.73a2.64,2.64,0,0,0,.83.86,1.89,1.89,0,0,0,.82.29.93.93,0,0,0,.63-.14.67.67,0,0,0,.31-.46.92.92,0,0,0-.13-.64,2.09,2.09,0,0,0-.74-.7c-.34-.21-.67-.43-1-.66a5.31,5.31,0,0,1-.86-.77,3.71,3.71,0,0,1-.61-.94,3.1,3.1,0,0,1-.23-1.23,3.3,3.3,0,0,1,.24-1.29,2.75,2.75,0,0,1,.64-.94,2.5,2.5,0,0,1,.91-.57,2.9,2.9,0,0,1,1.06-.16,2.23,2.23,0,0,1,1.41.51,2,2,0,0,1,.61,1,2,2,0,0,1-.08,1.12A1.39,1.39,0,0,1,177.4,56.43Z" transform="translate(-10.25 -15.89)"/>
      <path d="M182.54,51.62a2.44,2.44,0,0,1,.17-.95,1.61,1.61,0,0,1,.45-.64,1.64,1.64,0,0,1,.65-.35,2.67,2.67,0,0,1,.75-.11v3.74h1.85a6.84,6.84,0,0,1,0,.79,2.23,2.23,0,0,1-.22.69,1.43,1.43,0,0,1-.43.51,1.27,1.27,0,0,1-.71.19h-.44v5.69a.48.48,0,0,0,.19.45.77.77,0,0,0,.45.13,1.12,1.12,0,0,0,.51-.16.85.85,0,0,0,.37-.38,1.91,1.91,0,0,1,0,1.18,1.69,1.69,0,0,1-.58.82,1.94,1.94,0,0,1-.91.41,1.65,1.65,0,0,1-1.75-.79,2.46,2.46,0,0,1-.32-1.34v-6h-1V53.31h1Z" transform="translate(-10.25 -15.89)"/>
      <path d="M190.82,64.14a.71.71,0,0,1-.59.37,1.17,1.17,0,0,1-.78-.25l.75-2.13a5.73,5.73,0,0,1,.36-.86,1,1,0,0,1,.43-.44.77.77,0,0,1,.59,0,3.42,3.42,0,0,1,.83.56Z" transform="translate(-10.25 -15.89)"/>
      <path d="M207.67,53.51a3.29,3.29,0,0,0-.72-1.14,2.26,2.26,0,0,0-.83-.55,1.54,1.54,0,0,0-.82,0,1.41,1.41,0,0,0-.65.35,1.08,1.08,0,0,0-.32.58,1,1,0,0,0,.16.7,5.82,5.82,0,0,0,.87,1.06c.37.38.76.79,1.15,1.22s.78.87,1.15,1.33a5,5,0,0,1,.8,1.38,5.09,5.09,0,0,1,.27,1.91,4.57,4.57,0,0,1-.46,1.82,3.54,3.54,0,0,1-1.16,1.36,3.08,3.08,0,0,1-1.82.53,3.24,3.24,0,0,1-1.25-.25,4.26,4.26,0,0,1-1.16-.71,6,6,0,0,1-1-1.07,6.41,6.41,0,0,1-.76-1.39l1.68-1.55a3.93,3.93,0,0,0,.37.74,4.69,4.69,0,0,0,.49.68,3.59,3.59,0,0,0,.57.54,1.78,1.78,0,0,0,.57.33,1.47,1.47,0,0,0,.9,0,1.19,1.19,0,0,0,.66-.45,1.38,1.38,0,0,0,.24-.83,2.09,2.09,0,0,0-.36-1.07,7.54,7.54,0,0,0-1.08-1.29c-.44-.44-.89-.91-1.32-1.41a8.68,8.68,0,0,1-1.14-1.61,3.82,3.82,0,0,1-.48-1.89,4,4,0,0,1,.26-1.45,3.62,3.62,0,0,1,.68-1.13,3.15,3.15,0,0,1,1-.72,2.63,2.63,0,0,1,1.17-.26,3.75,3.75,0,0,1,1.43.27,2.77,2.77,0,0,1,1.08.77,2.63,2.63,0,0,1,.46.77,2.33,2.33,0,0,1,.16.85,2.13,2.13,0,0,1-.18.85A2,2,0,0,1,207.67,53.51Z" transform="translate(-10.25 -15.89)"/>
      <path d="M217.34,59.63a3.58,3.58,0,0,1-1.57.2,2.26,2.26,0,0,1-1.17-.43,1.67,1.67,0,0,1-.6-.94,2.32,2.32,0,0,1,.08-1.34,1.72,1.72,0,0,0,1.15.57,6.68,6.68,0,0,0,1.27,0,1.4,1.4,0,0,0,.77-.28.9.9,0,0,0,.33-.52,1.09,1.09,0,0,0,0-.61,1.48,1.48,0,0,0-.36-.58,1.63,1.63,0,0,0-.6-.42,1.76,1.76,0,0,0-.8-.15,2,2,0,0,0-.87.29,2.43,2.43,0,0,0-.74.66,3.55,3.55,0,0,0-.51,1,4,4,0,0,0-.21,1.24,4.55,4.55,0,0,0,.1,1.11,4.1,4.1,0,0,0,.36,1,3,3,0,0,0,.58.76,1.46,1.46,0,0,0,.77.39,2.05,2.05,0,0,0,1.24-.1,2.56,2.56,0,0,0,1.14-.88l1.68,1a4.49,4.49,0,0,1-1.55,1.77,4,4,0,0,1-2.05.53,3.72,3.72,0,0,1-1.88-.47,4.24,4.24,0,0,1-1.34-1.26,5.88,5.88,0,0,1-.8-1.78,7.41,7.41,0,0,1,.07-4.07,5.7,5.7,0,0,1,.88-1.76,3.57,3.57,0,0,1,1.5-1.23,4.46,4.46,0,0,1,1.75-.36,3.33,3.33,0,0,1,1.71.42,3.44,3.44,0,0,1,1.16,1.08,3.79,3.79,0,0,1,.6,1.45,4,4,0,0,1,0,1.54,3.12,3.12,0,0,1-.66,1.34A2.76,2.76,0,0,1,217.34,59.63Z" transform="translate(-10.25 -15.89)"/>
      <path d="M228.86,57.1a2.06,2.06,0,0,0-.49-1,2.28,2.28,0,0,0-.84-.57,2.5,2.5,0,0,0-1-.18,2.12,2.12,0,0,0-1,.27,2.56,2.56,0,0,0-.85.77,3.06,3.06,0,0,0-.51,1.3,4.11,4.11,0,0,0,0,1.31,3.36,3.36,0,0,0,.36,1.2,2.61,2.61,0,0,0,.78.87,2,2,0,0,0,1.17.34,2.24,2.24,0,0,0,2-1.18l1.52,1.39a3.83,3.83,0,0,1-3.5,2.15,3.62,3.62,0,0,1-2.07-.58,4.47,4.47,0,0,1-1.42-1.48,5.81,5.81,0,0,1-.73-2.06,7.09,7.09,0,0,1,0-2.25,6.41,6.41,0,0,1,.66-2.11,4.3,4.3,0,0,1,1.39-1.62,4,4,0,0,1,1.4-.64,3.74,3.74,0,0,1,1.49,0,2.8,2.8,0,0,1,1.55.75,2.73,2.73,0,0,1,.72,1.21,2.42,2.42,0,0,1,0,1.25A1.31,1.31,0,0,1,228.86,57.1Z" transform="translate(-10.25 -15.89)"/>
      <path d="M234.9,53.25v5c0,.24,0,.5,0,.78a5.29,5.29,0,0,0,.06.8,3.49,3.49,0,0,0,.19.74,1.5,1.5,0,0,0,.41.58,1.06,1.06,0,0,0,.41.24,1.26,1.26,0,0,0,.47.08,1.21,1.21,0,0,0,.46-.08,1.27,1.27,0,0,0,.42-.24,1.4,1.4,0,0,0,.41-.55,3.17,3.17,0,0,0,.19-.72,6.53,6.53,0,0,0,0-.78V55.33a2.06,2.06,0,0,1,.56-1.62,2,2,0,0,1,1.51-.5v4.43a21.37,21.37,0,0,1-.08,2.28,6.13,6.13,0,0,1-.26,1.44,3.7,3.7,0,0,1-1.31,1.93,3.42,3.42,0,0,1-2,.59,3.3,3.3,0,0,1-2.11-.69A3.85,3.85,0,0,1,233,61a9,9,0,0,1-.17-1.26c0-.53-.07-1.11-.07-1.74V53.25Z" transform="translate(-10.25 -15.89)"/>
      <path d="M243.26,53.19h1.79v1.33a3,3,0,0,1,.7-1.12,1.51,1.51,0,0,1,.93-.45,1.37,1.37,0,0,1,1.09.31,2,2,0,0,1,.58.91,2.47,2.47,0,0,1,.09,1.08,1.42,1.42,0,0,1-.43.88.92.92,0,0,0-.55-.65,1.12,1.12,0,0,0-.86,0,1.85,1.85,0,0,0-.81.71,2.74,2.74,0,0,0-.42,1.37q0,.48,0,1v5.1h-2.08Z" transform="translate(-10.25 -15.89)"/>
      <path d="M257.31,59.63a3.58,3.58,0,0,1-1.57.2,2.19,2.19,0,0,1-1.17-.43,1.69,1.69,0,0,1-.61-.94,2.41,2.41,0,0,1,.09-1.34,1.7,1.7,0,0,0,1.15.57,6.55,6.55,0,0,0,1.26,0,1.44,1.44,0,0,0,.78-.28.9.9,0,0,0,.33-.52,1.18,1.18,0,0,0-.05-.61,1.48,1.48,0,0,0-.36-.58,1.75,1.75,0,0,0-.61-.42,1.72,1.72,0,0,0-.79-.15,2,2,0,0,0-.88.29,2.4,2.4,0,0,0-.73.66,3.32,3.32,0,0,0-.52,1,4.35,4.35,0,0,0-.2,1.24,4.55,4.55,0,0,0,.1,1.11,4.1,4.1,0,0,0,.36,1,2.78,2.78,0,0,0,.58.76,1.46,1.46,0,0,0,.76.39,2.08,2.08,0,0,0,1.25-.1,2.56,2.56,0,0,0,1.14-.88l1.67,1a4.34,4.34,0,0,1-1.55,1.77,4,4,0,0,1-2,.53,3.69,3.69,0,0,1-1.88-.47,4.14,4.14,0,0,1-1.34-1.26,5.64,5.64,0,0,1-.8-1.78,7.41,7.41,0,0,1,.07-4.07,5.49,5.49,0,0,1,.88-1.76,3.54,3.54,0,0,1,1.49-1.23,4.49,4.49,0,0,1,1.75-.36,3.33,3.33,0,0,1,1.71.42,3.57,3.57,0,0,1,1.17,1.08,3.62,3.62,0,0,1,.59,1.45,3.8,3.8,0,0,1,0,1.54,3,3,0,0,1-.67,1.34A2.73,2.73,0,0,1,257.31,59.63Z" transform="translate(-10.25 -15.89)"/>
      <path d="M263.91,64.14a.7.7,0,0,1-.59.37,1.18,1.18,0,0,1-.78-.25l.75-2.13a5.73,5.73,0,0,1,.36-.86,1,1,0,0,1,.43-.44.77.77,0,0,1,.59,0,3.42,3.42,0,0,1,.83.56Z" transform="translate(-10.25 -15.89)"/>
      <path d="M280.62,62.51a3.81,3.81,0,0,1-1.32,1.09,3.06,3.06,0,0,1-1.43.31,3.14,3.14,0,0,1-1.4-.41,3.88,3.88,0,0,1-1.2-1.1,6.18,6.18,0,0,1-.83-1.71,7.55,7.55,0,0,1-.31-2.27,7,7,0,0,1,.34-2.23,5.56,5.56,0,0,1,.9-1.75,4.24,4.24,0,0,1,1.29-1.12,2.82,2.82,0,0,1,1.51-.35,2.05,2.05,0,0,1,1.24.43,2.48,2.48,0,0,1,.67.92,2.85,2.85,0,0,1,.23,1.06,2,2,0,0,1-.14.85,1.38,1.38,0,0,0-.76-.69,2.78,2.78,0,0,0-1-.17,1.76,1.76,0,0,0-1.23.45,2.76,2.76,0,0,0-.76,1.14,4.47,4.47,0,0,0-.26,1.48,4,4,0,0,0,.24,1.49,2.84,2.84,0,0,0,.75,1.14,1.84,1.84,0,0,0,1.26.45,1.56,1.56,0,0,0,1.05-.36,2.59,2.59,0,0,0,.67-.93,5.54,5.54,0,0,0,.35-1.29,9.78,9.78,0,0,0,.1-1.42V53.23h2.08V63.66h-2.08Z" transform="translate(-10.25 -15.89)"/>
      <path d="M288,54.44a1.49,1.49,0,0,1,.39-.62,2.74,2.74,0,0,1,.58-.45,3.73,3.73,0,0,1,.66-.28,2.56,2.56,0,0,1,1.82.09,2.78,2.78,0,0,1,1.09.88,4.4,4.4,0,0,1,.72,2.71v6.89h-2.05c0-.23,0-.54,0-.93s0-.81,0-1.28V60c0-.49,0-1,0-1.4s0-.84-.05-1.19a4.9,4.9,0,0,0-.08-.77,1.62,1.62,0,0,0-.48-1,1.12,1.12,0,0,0-.78-.32,1,1,0,0,0-.85.37,1.5,1.5,0,0,0-.3,1,.88.88,0,0,1-.38-.33,1.73,1.73,0,0,1-.29-.53v7.81H285.9V53.23H288Z" transform="translate(-10.25 -15.89)"/>
      <path d="M302.41,62.53a3.73,3.73,0,0,1-1.29,1.06,2.93,2.93,0,0,1-1.4.3,3.05,3.05,0,0,1-1.35-.4,3.67,3.67,0,0,1-1.16-1.07,5.58,5.58,0,0,1-.81-1.66,7.39,7.39,0,0,1-.3-2.19,7.13,7.13,0,0,1,.32-2.18,5.93,5.93,0,0,1,.88-1.7,4.2,4.2,0,0,1,1.26-1.1,2.84,2.84,0,0,1,1.47-.34,2,2,0,0,1,1.25.43,2.13,2.13,0,0,1,.66.88,2.6,2.6,0,0,1,.19,1,2.12,2.12,0,0,1-.15.83,1.38,1.38,0,0,0-.76-.65,2.65,2.65,0,0,0-.92-.17,1.72,1.72,0,0,0-1.21.44,2.76,2.76,0,0,0-.73,1.11,4,4,0,0,0-.25,1.44,4.17,4.17,0,0,0,.24,1.43,2.68,2.68,0,0,0,.72,1.11,1.69,1.69,0,0,0,1.21.44,1.52,1.52,0,0,0,1-.35,2.45,2.45,0,0,0,.64-.91,5.29,5.29,0,0,0,.35-1.26,9.15,9.15,0,0,0,.1-1.38V49.59a2,2,0,0,1,1.48.64,2.07,2.07,0,0,1,.53,1.41v12h-2Z" transform="translate(-10.25 -15.89)"/>
      <path d="M319.68,49.57v2.64h-4.34v3.12h4.34a4.94,4.94,0,0,1-.12.92,2.73,2.73,0,0,1-.3.83,1.8,1.8,0,0,1-.54.59,1.39,1.39,0,0,1-.82.23h-2.56v5.76h-2.12V51.94a3.33,3.33,0,0,1,.39-1.73,1.5,1.5,0,0,1,1.39-.64Z" transform="translate(-10.25 -15.89)"/>
      <path d="M322.86,53.19h1.79v1.33a3.14,3.14,0,0,1,.69-1.12,1.56,1.56,0,0,1,.94-.45,1.37,1.37,0,0,1,1.09.31,2,2,0,0,1,.58.91,2.47,2.47,0,0,1,.09,1.08,1.47,1.47,0,0,1-.43.88.91.91,0,0,0-.56-.65,1.1,1.1,0,0,0-.85,0,1.85,1.85,0,0,0-.81.71A2.74,2.74,0,0,0,325,57.6q0,.48,0,1v5.1h-2.08Z" transform="translate(-10.25 -15.89)"/>
      <path d="M336.91,59.63a3.6,3.6,0,0,1-1.57.2,2.19,2.19,0,0,1-1.17-.43,1.69,1.69,0,0,1-.61-.94,2.41,2.41,0,0,1,.09-1.34,1.7,1.7,0,0,0,1.15.57,6.55,6.55,0,0,0,1.26,0,1.47,1.47,0,0,0,.78-.28,1,1,0,0,0,.33-.52,1.18,1.18,0,0,0-.05-.61,1.74,1.74,0,0,0-1-1,1.72,1.72,0,0,0-.79-.15,2,2,0,0,0-.88.29,2.4,2.4,0,0,0-.73.66,3.32,3.32,0,0,0-.52,1,4.35,4.35,0,0,0-.2,1.24,4.27,4.27,0,0,0,.46,2.11,3,3,0,0,0,.57.76,1.49,1.49,0,0,0,.77.39,2.08,2.08,0,0,0,1.25-.1,2.59,2.59,0,0,0,1.13-.88l1.68,1a4.34,4.34,0,0,1-1.55,1.77,4,4,0,0,1-2,.53,3.69,3.69,0,0,1-1.88-.47,4.28,4.28,0,0,1-1.35-1.26,5.86,5.86,0,0,1-.79-1.78,7.36,7.36,0,0,1-.25-2,7.05,7.05,0,0,1,.32-2,5.49,5.49,0,0,1,.88-1.76,3.54,3.54,0,0,1,1.49-1.23,4.49,4.49,0,0,1,1.75-.36,3.33,3.33,0,0,1,1.71.42,3.57,3.57,0,0,1,1.17,1.08,3.91,3.91,0,0,1,.57,3,3.26,3.26,0,0,1-.67,1.34A2.73,2.73,0,0,1,336.91,59.63Z" transform="translate(-10.25 -15.89)"/>
      <path d="M347.62,59.63a3.58,3.58,0,0,1-1.57.2,2.19,2.19,0,0,1-1.17-.43,1.69,1.69,0,0,1-.61-.94,2.41,2.41,0,0,1,.09-1.34,1.7,1.7,0,0,0,1.15.57,6.55,6.55,0,0,0,1.26,0,1.44,1.44,0,0,0,.78-.28,1,1,0,0,0,.33-.52,1.18,1.18,0,0,0-.05-.61,1.74,1.74,0,0,0-1-1,1.72,1.72,0,0,0-.79-.15,2,2,0,0,0-.88.29,2.4,2.4,0,0,0-.73.66,3.32,3.32,0,0,0-.52,1,4.35,4.35,0,0,0-.2,1.24,4.55,4.55,0,0,0,.1,1.11,4.1,4.1,0,0,0,.36,1,2.78,2.78,0,0,0,.58.76,1.43,1.43,0,0,0,.76.39,2.08,2.08,0,0,0,1.25-.1,2.54,2.54,0,0,0,1.13-.88l1.68,1a4.34,4.34,0,0,1-1.55,1.77,4,4,0,0,1-2,.53,3.69,3.69,0,0,1-1.88-.47,4.14,4.14,0,0,1-1.34-1.26,5.64,5.64,0,0,1-.8-1.78,7.41,7.41,0,0,1,.07-4.07,5.49,5.49,0,0,1,.88-1.76,3.54,3.54,0,0,1,1.49-1.23,4.49,4.49,0,0,1,1.75-.36,3.33,3.33,0,0,1,1.71.42,3.57,3.57,0,0,1,1.17,1.08,3.62,3.62,0,0,1,.59,1.45,3.8,3.8,0,0,1,0,1.54,3.14,3.14,0,0,1-.67,1.34A2.73,2.73,0,0,1,347.62,59.63Z" transform="translate(-10.25 -15.89)"/>
      <path d="M358.68,62.53a3.8,3.8,0,0,1-1.28,1.06,3,3,0,0,1-1.4.3,3.09,3.09,0,0,1-1.36-.4,3.77,3.77,0,0,1-1.16-1.07,5.84,5.84,0,0,1-.81-1.66,7.39,7.39,0,0,1-.3-2.19,6.83,6.83,0,0,1,.33-2.18,5.69,5.69,0,0,1,.88-1.7,4.05,4.05,0,0,1,1.25-1.1,2.84,2.84,0,0,1,1.47-.34,2.09,2.09,0,0,1,1.26.43,2.2,2.2,0,0,1,.65.88,2.43,2.43,0,0,1,.19,1,2,2,0,0,1-.15.83,1.34,1.34,0,0,0-.76-.65,2.61,2.61,0,0,0-.92-.17,1.68,1.68,0,0,0-1.2.44,2.78,2.78,0,0,0-.74,1.11,4.33,4.33,0,0,0,0,2.87,2.68,2.68,0,0,0,.72,1.11,1.71,1.71,0,0,0,1.22.44,1.5,1.5,0,0,0,1-.35,2.47,2.47,0,0,0,.65-.91,5.28,5.28,0,0,0,.34-1.26,9.15,9.15,0,0,0,.1-1.38V49.59a2,2,0,0,1,1.48.64,2.08,2.08,0,0,1,.54,1.41v12h-2Z" transform="translate(-10.25 -15.89)"/>
      <path d="M367.91,53a3.59,3.59,0,0,1,2.25.77,5.41,5.41,0,0,1,1.54,2,6.63,6.63,0,0,1,.6,2.63,6.44,6.44,0,0,1-.59,2.84A4.9,4.9,0,0,1,370.34,63a4,4,0,0,1-1.81.86,3.54,3.54,0,0,1-1.92-.2,4.14,4.14,0,0,1-1.74-1.34,6,6,0,0,1-1.15-2.56,6.71,6.71,0,0,1,0-2.89,2.2,2.2,0,0,1,.47-1,2,2,0,0,1,.74-.56,1.86,1.86,0,0,1,1.7.07,2,2,0,0,1,.65.6,2.14,2.14,0,0,1,.31,1,.87.87,0,0,0-.58-.24,1.22,1.22,0,0,0-.65.19,1.48,1.48,0,0,0-.52.58,1.93,1.93,0,0,0-.22,1,3.64,3.64,0,0,0,.34,1.68,2.44,2.44,0,0,0,.84,1,1.92,1.92,0,0,0,2.17,0,2.58,2.58,0,0,0,.84-1,3.82,3.82,0,0,0,.34-1.69,3.91,3.91,0,0,0-.23-1.38,2.81,2.81,0,0,0-.6-1,2,2,0,0,0-.87-.54,1.87,1.87,0,0,0-1.05,0,1.92,1.92,0,0,0-.59-.58,2.22,2.22,0,0,0-.74-.28,2,2,0,0,0-.8,0,2,2,0,0,0-.75.35,5,5,0,0,1,1.48-1.5A3.49,3.49,0,0,1,367.91,53Z" transform="translate(-10.25 -15.89)"/>
      <path d="M377.26,54.44a1.7,1.7,0,0,1,.38-.62,2.47,2.47,0,0,1,.58-.44,3.81,3.81,0,0,1,.66-.27,2.5,2.5,0,0,1,.62-.12,2.45,2.45,0,0,1,1.21.19,2.75,2.75,0,0,1,1.08.88c.09.13.18.27.26.41a2.22,2.22,0,0,1,.2.47,1.68,1.68,0,0,1,.29-.79,2.4,2.4,0,0,1,.58-.61,3.49,3.49,0,0,1,.74-.39,2.85,2.85,0,0,1,.79-.16,2.47,2.47,0,0,1,1.22.19,2.9,2.9,0,0,1,1.11.88,4.4,4.4,0,0,1,.72,2.71v6.89h-2.08v-.93c0-.39,0-.81,0-1.28V60c0-.49,0-1,0-1.4s0-.84,0-1.19,0-.61-.06-.77c-.11-.87-.5-1.32-1.16-1.36a1.13,1.13,0,0,0-.94.4,1.42,1.42,0,0,0-.36,1,1,1,0,0,1-.29-.21,1.83,1.83,0,0,1-.25-.35c0,.11,0,.21,0,.31v7.2h-2c0-.23,0-.54,0-.93V60c0-.49,0-1,0-1.4s0-.84,0-1.19a6.54,6.54,0,0,0-.08-.77,1.74,1.74,0,0,0-.48-1,1.08,1.08,0,0,0-.77-.32,1,1,0,0,0-.86.37,1.5,1.5,0,0,0-.3,1,1,1,0,0,1-.39-.33,1.48,1.48,0,0,1-.27-.53v7.81h-2.08V53.25h2.08Z" transform="translate(-10.25 -15.89)"/>
    </g>
    <g>
      <path d="M36.82,15.89H10.25A11.1,11.1,0,0,0,21.36,27H36.15c11.61,0,19.22,6.94,19.22,18.14,0,6.21-2.35,11.12-6.42,14.24h0a63.09,63.09,0,0,1-.53,13.4C61.06,69.05,69.07,59,69.07,45.14,69.07,27.42,56,15.89,36.82,15.89Z" transform="translate(-10.25 -15.89)" style="fill: #4a61f0"/>
      <path d="M48.42,72.79a41,41,0,0,1-11.6,1.59H27.55l.21-.85s10.35-17.94-4-28.39V56.69a18.21,18.21,0,0,1-13.21,17.6l-.32.09V36.21a6.57,6.57,0,0,1,6.56-6.57h7S47.53,31.8,49,59.39A63.09,63.09,0,0,1,48.42,72.79Z" transform="translate(-10.25 -15.89)" style="fill: #ffad01"/>
      <path d="M48.42,72.79A63.09,63.09,0,0,0,49,59.39h0a15.33,15.33,0,0,0,4.17-4.85c3.22,4.31,4.13,9.74,4.26,14A31,31,0,0,1,48.42,72.79Z" transform="translate(-10.25 -15.89)" style="fill: #324ccc"/>
      <path d="M23.78,45.14V56.69a18.21,18.21,0,0,1-13.21,17.6l-.32.09V37.16A27.57,27.57,0,0,1,23.78,45.14Z" transform="translate(-10.25 -15.89)" style="fill: #f49000"/>
    </g>
    <path d="M98.49,86.5" transform="translate(-10.25 -15.89)" style="fill: #253068"/>
    <line x1="70.12" y1="28.45" x2="449.24" y2="28.45" style="fill: none;stroke: #000;stroke-miterlimit: 10"/>
  </g>
</svg>
