<svg xmlns="http://www.w3.org/2000/svg" xmlns:xlink="http://www.w3.org/1999/xlink" width="600" zoomAndPan="magnify" viewBox="0 0 450 149.999998" height="200" preserveAspectRatio="xMidYMid meet" version="1.0"><defs><g/><clipPath id="fbef69d0b9"><path d="M 28.070312 23.660156 L 130.820312 23.660156 L 130.820312 126.410156 L 28.070312 126.410156 Z M 28.070312 23.660156 " clip-rule="nonzero"/></clipPath></defs><g fill="#737373" fill-opacity="1"><g transform="translate(142.302161, 65.249998)"><g><path d="M 0.371094 -1.394531 C 0.15625 -0.621094 0.621094 0 1.425781 0 L 4.402344 0 C 5.207031 0 5.984375 -0.621094 6.199219 -1.425781 L 7.222656 -5.238281 L 17.980469 -5.238281 L 17.980469 -1.425781 C 17.980469 -0.621094 18.597656 0 19.40625 0 L 22.257812 0 C 23.03125 0 23.683594 -0.621094 23.683594 -1.394531 L 23.683594 -20.304688 C 23.683594 -21.046875 23.125 -21.699219 22.378906 -21.699219 L 14.226562 -21.699219 C 9.828125 -21.699219 5.457031 -20.613281 4.183594 -15.808594 Z M 9.671875 -14.382812 C 10.167969 -16.242188 11.71875 -17.421875 13.667969 -17.421875 L 17.980469 -17.421875 L 17.980469 -9.515625 L 8.339844 -9.515625 Z M 9.671875 -14.382812 "/></g></g></g><g fill="#737373" fill-opacity="1"><g transform="translate(168.152943, 65.249998)"><g><path d="M 6.449219 0 C 7.222656 0 7.875 -0.621094 7.875 -1.394531 L 7.875 -8.742188 L 11.128906 -8.742188 C 13.082031 -8.742188 14.226562 -7.46875 15.375 -5.640625 L 18.039062 -1.425781 C 18.535156 -0.621094 19.589844 0 20.367188 0 L 23.835938 0 C 24.644531 0 24.859375 -0.621094 24.363281 -1.425781 L 20.582031 -7.4375 C 19.714844 -8.773438 18.164062 -10.664062 16.675781 -10.972656 C 18.785156 -11.46875 19.808594 -12.925781 20.582031 -14.320312 L 23.867188 -20.273438 C 24.332031 -21.109375 24.179688 -21.730469 23.402344 -21.730469 L 19.902344 -21.730469 C 19.125 -21.730469 18.289062 -21.265625 17.730469 -20.273438 L 15.375 -16.085938 C 14.164062 -13.917969 12.894531 -13.019531 11.128906 -13.019531 L 7.875 -13.019531 L 7.875 -20.273438 C 7.875 -21.078125 7.222656 -21.730469 6.449219 -21.730469 L 3.597656 -21.730469 C 2.820312 -21.730469 2.167969 -21.078125 2.167969 -20.273438 L 2.167969 -1.457031 C 2.167969 -0.652344 2.820312 0 3.597656 0 Z M 6.449219 0 "/></g></g></g><g fill="#737373" fill-opacity="1"><g transform="translate(192.794875, 65.249998)"><g><path d="M 0.371094 -1.394531 C 0.15625 -0.621094 0.621094 0 1.425781 0 L 4.402344 0 C 5.207031 0 5.984375 -0.621094 6.199219 -1.425781 L 7.222656 -5.238281 L 17.980469 -5.238281 L 17.980469 -1.425781 C 17.980469 -0.621094 18.597656 0 19.40625 0 L 22.257812 0 C 23.03125 0 23.683594 -0.621094 23.683594 -1.394531 L 23.683594 -20.304688 C 23.683594 -21.046875 23.125 -21.699219 22.378906 -21.699219 L 14.226562 -21.699219 C 9.828125 -21.699219 5.457031 -20.613281 4.183594 -15.808594 Z M 9.671875 -14.382812 C 10.167969 -16.242188 11.71875 -17.421875 13.667969 -17.421875 L 17.980469 -17.421875 L 17.980469 -9.515625 L 8.339844 -9.515625 Z M 9.671875 -14.382812 "/></g></g></g><g fill="#737373" fill-opacity="1"><g transform="translate(218.645658, 65.249998)"><g><path d="M 1.734375 -21.699219 C 0.929688 -21.699219 0.308594 -21.078125 0.308594 -20.273438 L 0.308594 -18.847656 C 0.308594 -18.039062 0.929688 -17.421875 1.734375 -17.421875 L 8.492188 -17.421875 L 8.492188 -1.394531 C 8.492188 -0.621094 9.144531 0 9.917969 0 L 12.769531 0 C 13.546875 0 14.195312 -0.621094 14.195312 -1.394531 L 14.195312 -17.421875 L 20.953125 -17.421875 C 21.761719 -17.421875 22.378906 -18.039062 22.378906 -18.847656 L 22.378906 -20.273438 C 22.378906 -21.078125 21.761719 -21.699219 20.953125 -21.699219 Z M 1.734375 -21.699219 "/></g></g></g><g fill="#737373" fill-opacity="1"><g transform="translate(241.334839, 65.249998)"><g><path d="M 1.117188 -15.5 C 1.117188 -7.46875 17.511719 -9.484375 17.511719 -5.890625 C 17.511719 -4.804688 16.707031 -4.152344 14.847656 -4.152344 L 9.546875 -4.246094 C 7.996094 -4.246094 6.820312 -4.742188 6.324219 -5.796875 C 5.828125 -6.820312 5.144531 -7.222656 4.277344 -7.222656 L 2.480469 -7.222656 C 2.078125 -7.222656 0.929688 -6.945312 0.929688 -5.546875 C 0.929688 -2.230469 5.113281 0.03125 9.019531 0.03125 L 13.609375 0.125 C 21.046875 0.125 23.21875 -2.480469 23.21875 -6.199219 C 23.21875 -14.289062 6.820312 -12.214844 6.820312 -15.808594 C 6.820312 -16.894531 7.625 -17.542969 9.484375 -17.542969 L 14.042969 -17.453125 C 15.589844 -17.453125 16.769531 -16.957031 17.265625 -15.902344 C 17.761719 -14.878906 18.445312 -14.476562 19.3125 -14.476562 L 21.109375 -14.476562 C 21.511719 -14.476562 22.660156 -14.753906 22.660156 -16.148438 C 22.660156 -19.464844 18.472656 -21.730469 14.570312 -21.730469 L 10.726562 -21.820312 C 3.285156 -21.820312 1.117188 -19.21875 1.117188 -15.5 Z M 1.117188 -15.5 "/></g></g></g><g fill="#737373" fill-opacity="1"><g transform="translate(265.480829, 65.249998)"><g><path d="M 11.5625 -4.152344 C 8.804688 -4.152344 7.5625 -5.578125 7.5625 -8.554688 L 7.5625 -20.273438 C 7.5625 -21.078125 6.914062 -21.699219 6.136719 -21.699219 L 3.316406 -21.699219 C 2.511719 -21.699219 1.859375 -21.078125 1.859375 -20.273438 L 1.859375 -8.585938 C 1.859375 -3.101562 5.082031 0.125 11.40625 0.125 L 14.136719 0.125 C 20.457031 0.125 23.683594 -3.101562 23.683594 -8.585938 L 23.683594 -20.273438 C 23.683594 -21.078125 23.03125 -21.699219 22.226562 -21.699219 L 19.40625 -21.699219 C 18.628906 -21.699219 17.980469 -21.078125 17.980469 -20.273438 L 17.980469 -8.554688 C 17.980469 -5.578125 16.738281 -4.152344 13.980469 -4.152344 Z M 11.5625 -4.152344 "/></g></g></g><g fill="#737373" fill-opacity="1"><g transform="translate(291.021649, 65.249998)"><g><path d="M 2.167969 -1.425781 C 2.167969 -0.652344 2.789062 0 3.597656 0 L 16.613281 0 C 20.859375 0 24.644531 -2.199219 24.644531 -6.507812 C 24.644531 -8.554688 23.773438 -10.445312 21.730469 -11.53125 C 23.25 -12.769531 23.773438 -13.980469 23.773438 -15.53125 C 23.773438 -20.023438 19.777344 -21.699219 15.902344 -21.699219 L 3.597656 -21.699219 C 2.789062 -21.699219 2.167969 -21.046875 2.167969 -20.273438 Z M 15.964844 -17.605469 C 17.234375 -17.605469 18.070312 -16.832031 18.070312 -15.4375 C 18.070312 -14.042969 17.234375 -13.265625 15.964844 -13.265625 L 7.875 -13.265625 L 7.875 -17.605469 Z M 16.523438 -9.300781 C 18.132812 -9.300781 18.941406 -8.246094 18.941406 -6.695312 C 18.941406 -5.144531 18.132812 -4.089844 16.523438 -4.089844 L 7.875 -4.089844 L 7.875 -9.300781 Z M 16.523438 -9.300781 "/></g></g></g><g fill="#737373" fill-opacity="1"><g transform="translate(316.59347, 65.249998)"><g><path d="M 0.371094 -1.394531 C 0.15625 -0.621094 0.621094 0 1.425781 0 L 4.402344 0 C 5.207031 0 5.984375 -0.621094 6.199219 -1.425781 L 7.222656 -5.238281 L 17.980469 -5.238281 L 17.980469 -1.425781 C 17.980469 -0.621094 18.597656 0 19.40625 0 L 22.257812 0 C 23.03125 0 23.683594 -0.621094 23.683594 -1.394531 L 23.683594 -20.304688 C 23.683594 -21.046875 23.125 -21.699219 22.378906 -21.699219 L 14.226562 -21.699219 C 9.828125 -21.699219 5.457031 -20.613281 4.183594 -15.808594 Z M 9.671875 -14.382812 C 10.167969 -16.242188 11.71875 -17.421875 13.667969 -17.421875 L 17.980469 -17.421875 L 17.980469 -9.515625 L 8.339844 -9.515625 Z M 9.671875 -14.382812 "/></g></g></g><g fill="#737373" fill-opacity="1"><g transform="translate(342.444253, 65.249998)"><g><path d="M 6.449219 0 C 7.222656 0 7.875 -0.621094 7.875 -1.394531 L 7.875 -8.742188 L 11.128906 -8.742188 C 13.082031 -8.742188 14.226562 -7.46875 15.375 -5.640625 L 18.039062 -1.425781 C 18.535156 -0.621094 19.589844 0 20.367188 0 L 23.835938 0 C 24.644531 0 24.859375 -0.621094 24.363281 -1.425781 L 20.582031 -7.4375 C 19.714844 -8.773438 18.164062 -10.664062 16.675781 -10.972656 C 18.785156 -11.46875 19.808594 -12.925781 20.582031 -14.320312 L 23.867188 -20.273438 C 24.332031 -21.109375 24.179688 -21.730469 23.402344 -21.730469 L 19.902344 -21.730469 C 19.125 -21.730469 18.289062 -21.265625 17.730469 -20.273438 L 15.375 -16.085938 C 14.164062 -13.917969 12.894531 -13.019531 11.128906 -13.019531 L 7.875 -13.019531 L 7.875 -20.273438 C 7.875 -21.078125 7.222656 -21.730469 6.449219 -21.730469 L 3.597656 -21.730469 C 2.820312 -21.730469 2.167969 -21.078125 2.167969 -20.273438 L 2.167969 -1.457031 C 2.167969 -0.652344 2.820312 0 3.597656 0 Z M 6.449219 0 "/></g></g></g><g fill="#737373" fill-opacity="1"><g transform="translate(367.086173, 65.249998)"><g><path d="M 2.167969 -1.394531 C 2.167969 -0.621094 2.820312 0 3.597656 0 L 6.417969 0 C 7.222656 0 7.875 -0.652344 7.875 -1.425781 L 7.875 -20.273438 C 7.875 -21.078125 7.222656 -21.699219 6.417969 -21.699219 L 3.597656 -21.699219 C 2.820312 -21.699219 2.167969 -21.078125 2.167969 -20.273438 Z M 2.167969 -1.394531 "/></g></g></g><g fill="#737373" fill-opacity="1"><g transform="translate(197.96622, 107.999996)"><g><path d="M 13.390625 -17.421875 C 16.367188 -17.421875 18.566406 -16.800781 18.566406 -13.265625 C 18.566406 -9.734375 16.367188 -9.113281 13.390625 -9.113281 L 7.875 -9.113281 L 7.875 -17.421875 Z M 3.566406 -21.699219 C 2.789062 -21.699219 2.167969 -21.078125 2.167969 -20.273438 L 2.167969 -1.425781 C 2.167969 -0.652344 2.820312 0 3.597656 0 L 6.449219 0 C 7.253906 0 7.875 -0.652344 7.875 -1.425781 L 7.875 -4.835938 L 15.125 -4.835938 C 20.890625 -4.835938 24.269531 -7.4375 24.269531 -13.265625 C 24.269531 -19.09375 20.890625 -21.699219 15.125 -21.699219 Z M 3.566406 -21.699219 "/></g></g></g><g fill="#737373" fill-opacity="1"><g transform="translate(222.856123, 107.999996)"><g><path d="M 0.371094 -1.394531 C 0.15625 -0.621094 0.621094 0 1.425781 0 L 4.402344 0 C 5.207031 0 5.984375 -0.621094 6.199219 -1.425781 L 7.222656 -5.238281 L 17.980469 -5.238281 L 17.980469 -1.425781 C 17.980469 -0.621094 18.597656 0 19.40625 0 L 22.257812 0 C 23.03125 0 23.683594 -0.621094 23.683594 -1.394531 L 23.683594 -20.304688 C 23.683594 -21.046875 23.125 -21.699219 22.378906 -21.699219 L 14.226562 -21.699219 C 9.828125 -21.699219 5.457031 -20.613281 4.183594 -15.808594 Z M 9.671875 -14.382812 C 10.167969 -16.242188 11.71875 -17.421875 13.667969 -17.421875 L 17.980469 -17.421875 L 17.980469 -9.515625 L 8.339844 -9.515625 Z M 9.671875 -14.382812 "/></g></g></g><g fill="#737373" fill-opacity="1"><g transform="translate(248.706905, 107.999996)"><g><path d="M 6.261719 0 C 7.035156 0 7.6875 -0.652344 7.6875 -1.425781 L 7.6875 -14.414062 L 16.058594 -1.425781 C 16.550781 -0.652344 17.453125 0 18.257812 0 L 23.277344 0 C 24.085938 0 24.703125 -0.652344 24.703125 -1.425781 L 24.703125 -20.273438 C 24.703125 -21.078125 24.085938 -21.699219 23.277344 -21.699219 L 20.675781 -21.699219 C 19.902344 -21.699219 19.25 -21.078125 19.25 -20.304688 L 19.25 -6.199219 L 10.105469 -20.273438 C 9.640625 -20.984375 8.773438 -21.699219 8.027344 -21.699219 L 3.566406 -21.699219 C 2.789062 -21.699219 2.167969 -21.046875 2.167969 -20.273438 L 2.167969 -1.425781 C 2.167969 -0.652344 2.820312 0 3.597656 0 Z M 6.261719 0 "/></g></g></g><g fill="#737373" fill-opacity="1"><g transform="translate(275.580561, 107.999996)"><g><path d="M 21.046875 -21.699219 L 3.597656 -21.699219 C 2.820312 -21.699219 2.167969 -21.078125 2.167969 -20.304688 L 2.167969 -1.457031 C 2.167969 -0.652344 2.789062 0 3.597656 0 L 20.984375 0 C 21.792969 0 22.410156 -0.652344 22.410156 -1.425781 L 22.410156 -2.882812 C 22.410156 -3.65625 21.792969 -4.277344 21.015625 -4.277344 L 7.875 -4.277344 L 7.875 -8.742188 L 19.21875 -8.742188 C 19.992188 -8.742188 20.644531 -9.390625 20.644531 -10.167969 L 20.644531 -11.59375 C 20.644531 -12.367188 19.992188 -13.019531 19.21875 -13.019531 L 7.875 -13.019531 L 7.875 -17.421875 L 21.046875 -17.421875 C 21.820312 -17.421875 22.472656 -18.039062 22.472656 -18.847656 L 22.472656 -20.273438 C 22.472656 -21.078125 21.820312 -21.699219 21.046875 -21.699219 Z M 21.046875 -21.699219 "/></g></g></g><g fill="#737373" fill-opacity="1"><g transform="translate(298.672689, 107.999996)"><g><path d="M 3.597656 -21.699219 C 2.789062 -21.699219 2.167969 -21.046875 2.167969 -20.242188 L 2.167969 -1.394531 C 2.167969 -0.621094 2.820312 0 3.597656 0 L 21.046875 0 C 21.820312 0 22.472656 -0.621094 22.472656 -1.425781 L 22.472656 -2.851562 C 22.472656 -3.65625 21.820312 -4.277344 21.046875 -4.277344 L 7.875 -4.277344 L 7.875 -20.242188 C 7.875 -21.046875 7.253906 -21.699219 6.449219 -21.699219 Z M 3.597656 -21.699219 "/></g></g></g><g clip-path="url(#fbef69d0b9)"><path fill="#737373" d="M 79.445312 23.660156 C 72.300781 23.660156 65.953125 27.203125 62.0625 32.625 C 60.757812 32.375 59.414062 32.222656 58.039062 32.222656 C 46.269531 32.222656 36.632812 41.859375 36.632812 53.628906 C 36.632812 55.019531 36.789062 56.378906 37.042969 57.703125 C 31.640625 61.597656 28.070312 67.90625 28.070312 75.035156 C 28.070312 82.183594 31.613281 88.53125 37.035156 92.421875 C 36.785156 93.726562 36.632812 95.070312 36.632812 96.441406 C 36.632812 108.214844 46.269531 117.847656 58.039062 117.847656 C 59.429688 117.847656 60.789062 117.695312 62.113281 117.441406 C 66.007812 122.84375 72.316406 126.410156 79.445312 126.410156 C 86.59375 126.410156 92.941406 122.867188 96.832031 117.449219 C 98.136719 117.699219 99.480469 117.847656 100.851562 117.847656 C 112.625 117.847656 122.257812 108.214844 122.257812 96.441406 C 122.257812 95.054688 122.105469 93.695312 121.851562 92.371094 C 127.253906 88.476562 130.820312 82.167969 130.820312 75.035156 C 130.820312 67.890625 127.277344 61.542969 121.859375 57.652344 C 122.109375 56.347656 122.257812 55.003906 122.257812 53.628906 C 122.257812 41.859375 112.625 32.222656 100.851562 32.222656 C 99.464844 32.222656 98.105469 32.378906 96.78125 32.632812 C 92.886719 27.230469 86.578125 23.660156 79.445312 23.660156 Z M 79.445312 32.222656 C 84.21875 32.222656 88.304688 34.800781 90.519531 38.621094 C 90.671875 39.273438 90.960938 39.859375 91.386719 40.378906 C 91.953125 41.832031 92.289062 43.402344 92.289062 45.066406 C 87.164062 45.066406 82.59375 47.40625 79.445312 51.011719 C 79.378906 50.9375 79.289062 50.878906 79.222656 50.804688 C 78.414062 44.738281 75.078125 39.476562 70.273438 36.113281 C 72.601562 33.730469 75.824219 32.222656 79.445312 32.222656 Z M 58.039062 40.785156 C 59.542969 40.785156 60.96875 41.054688 62.296875 41.523438 C 62.433594 41.582031 62.574219 41.636719 62.714844 41.683594 C 64.617188 42.429688 66.277344 43.628906 67.613281 45.125 C 67.277344 45.105469 66.945312 45.066406 66.601562 45.066406 C 60.257812 45.066406 54.742188 48.625 51.785156 53.796875 C 51.023438 53.714844 50.261719 53.628906 49.476562 53.628906 C 48.027344 53.628906 46.609375 53.777344 45.238281 54.058594 C 45.234375 53.914062 45.195312 53.777344 45.195312 53.628906 C 45.195312 46.488281 50.898438 40.785156 58.039062 40.785156 Z M 100.851562 40.785156 C 107.996094 40.785156 113.695312 46.488281 113.695312 53.628906 C 113.695312 55.199219 113.417969 56.691406 112.910156 58.070312 C 112.171875 60.074219 110.925781 61.820312 109.355469 63.214844 C 109.378906 62.875 109.414062 62.539062 109.414062 62.191406 C 109.414062 55.847656 105.859375 50.332031 100.6875 47.375 C 100.769531 46.613281 100.851562 45.851562 100.851562 45.066406 C 100.851562 43.617188 100.707031 42.199219 100.425781 40.828125 C 100.570312 40.824219 100.707031 40.785156 100.851562 40.785156 Z M 66.601562 53.628906 C 68.65625 53.628906 70.5 54.355469 71.964844 55.527344 C 71.964844 55.535156 71.96875 55.539062 71.972656 55.546875 C 72.199219 55.789062 72.453125 56.003906 72.734375 56.1875 C 74.238281 57.726562 75.164062 59.835938 75.164062 62.191406 C 75.164062 62.472656 75.117188 62.742188 75.089844 63.011719 C 71.546875 64.316406 68.738281 67.121094 67.429688 70.664062 C 67.15625 70.699219 66.875 70.753906 66.601562 70.753906 C 61.824219 70.753906 58.039062 66.972656 58.039062 62.191406 C 58.039062 57.414062 61.824219 53.628906 66.601562 53.628906 Z M 92.289062 53.628906 C 97.070312 53.628906 100.851562 57.414062 100.851562 62.191406 C 100.851562 64.246094 100.128906 66.089844 98.957031 67.554688 C 98.949219 67.554688 98.945312 67.558594 98.9375 67.5625 C 98.695312 67.789062 98.480469 68.042969 98.292969 68.324219 C 96.757812 69.828125 94.648438 70.753906 92.289062 70.753906 C 92.011719 70.753906 91.742188 70.707031 91.472656 70.679688 C 90.167969 67.136719 87.363281 64.328125 83.820312 63.019531 C 83.785156 62.746094 83.726562 62.464844 83.726562 62.191406 C 83.726562 57.414062 87.511719 53.628906 92.289062 53.628906 Z M 49.476562 62.191406 C 49.476562 67.320312 51.816406 71.890625 55.421875 75.035156 C 55.347656 75.105469 55.289062 75.195312 55.214844 75.261719 C 49.148438 76.070312 43.886719 79.40625 40.523438 84.210938 C 38.140625 81.882812 36.632812 78.660156 36.632812 75.035156 C 36.632812 70.265625 39.210938 66.179688 43.03125 63.964844 C 43.683594 63.8125 44.269531 63.523438 44.789062 63.097656 C 46.242188 62.53125 47.8125 62.191406 49.476562 62.191406 Z M 118.371094 65.863281 C 120.753906 68.191406 122.257812 71.414062 122.257812 75.035156 C 122.257812 80.078125 119.386719 84.351562 115.203125 86.460938 C 114.960938 86.5625 114.734375 86.6875 114.515625 86.835938 C 112.953125 87.503906 111.234375 87.878906 109.414062 87.878906 C 109.414062 82.753906 107.078125 78.183594 103.46875 75.035156 C 103.546875 74.96875 103.605469 74.878906 103.679688 74.8125 C 109.746094 74.003906 115.007812 70.667969 118.371094 65.863281 Z M 79.496094 70.804688 C 79.675781 70.839844 79.851562 70.863281 80.03125 70.871094 C 81.914062 71.128906 83.3125 72.5 83.601562 74.367188 C 83.609375 74.609375 83.632812 74.847656 83.679688 75.085938 C 83.644531 75.265625 83.621094 75.441406 83.613281 75.621094 C 83.355469 77.503906 81.984375 78.902344 80.117188 79.191406 C 79.875 79.199219 79.632812 79.222656 79.398438 79.269531 C 79.21875 79.234375 79.042969 79.210938 78.863281 79.199219 C 76.980469 78.945312 75.582031 77.574219 75.292969 75.707031 C 75.285156 75.464844 75.261719 75.222656 75.214844 74.988281 C 75.25 74.808594 75.273438 74.632812 75.28125 74.453125 C 75.539062 72.570312 76.910156 71.171875 78.777344 70.882812 C 79.019531 70.875 79.261719 70.851562 79.496094 70.804688 Z M 66.601562 79.316406 C 66.882812 79.316406 67.152344 79.367188 67.421875 79.394531 C 68.726562 82.9375 71.53125 85.746094 75.074219 87.054688 C 75.109375 87.328125 75.164062 87.609375 75.164062 87.878906 C 75.164062 92.660156 71.382812 96.441406 66.601562 96.441406 C 65.890625 96.441406 65.207031 96.335938 64.546875 96.175781 C 64.464844 96.144531 64.378906 96.117188 64.296875 96.09375 C 64.242188 96.078125 64.191406 96.058594 64.136719 96.042969 C 64.121094 96.039062 64.109375 96.035156 64.09375 96.035156 C 60.574219 94.972656 58.039062 91.777344 58.039062 87.878906 C 58.039062 83.101562 61.824219 79.316406 66.601562 79.316406 Z M 92.289062 79.316406 C 97.070312 79.316406 100.851562 83.101562 100.851562 87.878906 C 100.851562 92.660156 97.070312 96.441406 92.289062 96.441406 C 90.238281 96.441406 88.394531 95.71875 86.929688 94.546875 C 86.925781 94.542969 86.925781 94.53125 86.921875 94.527344 C 86.695312 94.285156 86.441406 94.070312 86.160156 93.882812 C 84.65625 92.347656 83.726562 90.238281 83.726562 87.878906 C 83.726562 87.601562 83.777344 87.332031 83.804688 87.0625 C 87.347656 85.757812 90.15625 82.949219 91.464844 79.410156 C 91.738281 79.375 92.019531 79.316406 92.289062 79.316406 Z M 49.535156 86.867188 C 49.515625 87.207031 49.476562 87.539062 49.476562 87.878906 C 49.476562 94.226562 53.035156 99.742188 58.207031 102.699219 C 58.125 103.460938 58.039062 104.222656 58.039062 105.003906 C 58.039062 106.457031 58.1875 107.871094 58.46875 109.246094 C 58.324219 109.25 58.1875 109.285156 58.039062 109.285156 C 50.898438 109.285156 45.195312 103.585938 45.195312 96.441406 C 45.195312 94.941406 45.464844 93.515625 45.933594 92.1875 C 45.996094 92.039062 46.054688 91.890625 46.101562 91.734375 C 46.847656 89.847656 48.046875 88.199219 49.535156 86.867188 Z M 113.65625 96.015625 C 113.660156 96.160156 113.695312 96.296875 113.695312 96.441406 C 113.695312 103.585938 107.996094 109.285156 100.851562 109.285156 C 99.351562 109.285156 97.925781 109.015625 96.597656 108.550781 C 96.449219 108.488281 96.300781 108.429688 96.144531 108.382812 C 94.257812 107.636719 92.601562 106.445312 91.269531 104.945312 C 91.609375 104.96875 91.945312 105.003906 92.289062 105.003906 C 98.636719 105.003906 104.152344 101.449219 107.109375 96.277344 C 107.871094 96.359375 108.632812 96.441406 109.414062 96.441406 C 110.867188 96.441406 112.285156 96.296875 113.65625 96.015625 Z M 79.445312 99.058594 C 79.523438 99.148438 79.621094 99.210938 79.699219 99.292969 C 80.511719 105.351562 83.828125 110.605469 88.621094 113.960938 C 86.292969 116.34375 83.070312 117.847656 79.445312 117.847656 C 74.675781 117.847656 70.589844 115.273438 68.375 111.453125 C 68.222656 110.800781 67.933594 110.214844 67.507812 109.695312 C 66.941406 108.242188 66.601562 106.671875 66.601562 105.003906 C 71.730469 105.003906 76.300781 102.667969 79.445312 99.058594 Z M 79.445312 99.058594 " fill-opacity="1" fill-rule="nonzero"/></g></svg>